CSLSans-BoldItalic.ufo
<glyph name="comma" format="2">
  <advance width="300"/>
  <unicode hex="002C"/>
  <outline>
    <contour>
      <point x="40" y="-144" type="qcurve"/>
      <point x="-58" y="-144" type="line"/>
      <point x="23" y="-81"/>
      <point x="62" y="-8" type="qcurve"/>
      <point x="14" y="4"/>
      <point x="14" y="46" type="qcurve" smooth="yes"/>
      <point x="14" y="90"/>
      <point x="58" y="159"/>
      <point x="110" y="159" type="qcurve" smooth="yes"/>
      <point x="150" y="159"/>
      <point x="182" y="122"/>
      <point x="182" y="98" type="qcurve" smooth="yes"/>
      <point x="182" y="43"/>
      <point x="108" y="-93"/>
    </contour>
  </outline>
</glyph>
<glyph name="period" format="2">
  <advance width="300"/>
  <unicode hex="002E"/>
  <outline>
    <contour>
      <point x="82" y="-11" type="qcurve" smooth="yes"/>
      <point x="11" y="-11"/>
      <point x="11" y="45" type="qcurve" smooth="yes"/>
      <point x="11" y="159"/>
      <point x="108" y="159" type="qcurve" smooth="yes"/>
      <point x="179" y="159"/>
      <point x="179" y="103" type="qcurve" smooth="yes"/>
      <point x="179" y="-11"/>
    </contour>
  </outline>
</glyph>
<glyph name="colon" format="2">
  <advance width="300"/>
  <unicode hex="003A"/>
  <outline>
    <contour>
      <point x="92" y="-11" type="qcurve" smooth="yes"/>
      <point x="21" y="-11"/>
      <point x="21" y="45" type="qcurve" smooth="yes"/>
      <point x="21" y="159"/>
      <point x="118" y="159" type="qcurve" smooth="yes"/>
      <point x="189" y="159"/>
      <point x="189" y="103" type="qcurve" smooth="yes"/>
      <point x="189" y="-11"/>
    </contour>
    <contour>
      <point x="167" y="364" type="qcurve" smooth="yes"/>
      <point x="126" y="364"/>
      <point x="95" y="399"/>
      <point x="95" y="420" type="qcurve" smooth="yes"/>
      <point x="95" y="468"/>
      <point x="139" y="534"/>
      <point x="193" y="534" type="qcurve" smooth="yes"/>
      <point x="233" y="534"/>
      <point x="264" y="499"/>
      <point x="264" y="478" type="qcurve" smooth="yes"/>
      <point x="264" y="364"/>
    </contour>
  </outline>
</glyph>
<glyph name="V" format="2">
  <advance width="624"/>
  <unicode hex="0056"/>
  <outline>
    <contour>
      <point x="335" y="0" type="line"/>
      <point x="183" y="0" type="line"/>
      <point x="101" y="698" type="line"/>
      <point x="235" y="698" type="line"/>
      <point x="261" y="424" type="line" smooth="yes"/>
      <point x="267" y="364"/>
      <point x="282" y="141" type="qcurve"/>
      <point x="288" y="141" type="line"/>
      <point x="347" y="270" type="line" smooth="yes"/>
      <point x="394" y="376"/>
      <point x="461" y="507" type="qcurve" smooth="yes"/>
      <point x="556" y="698" type="line"/>
      <point x="697" y="698" type="line"/>
    </contour>
  </outline>
</glyph>
<glyph name="threequarters" format="2">
  <advance width="862"/>
  <unicode hex="00BE"/>
  <outline>
    <contour>
      <point x="638" y="137" type="line"/>
      <point x="665" y="266" type="line"/>
      <point x="658" y="266" type="line"/>
      <point x="542" y="137" type="line"/>
    </contour>
    <contour>
      <point x="697" y="0" type="line"/>
      <point x="611" y="0" type="line"/>
      <point x="625" y="71" type="line"/>
      <point x="452" y="71" type="line"/>
      <point x="469" y="146" type="line"/>
      <point x="667" y="369" type="line"/>
      <point x="771" y="369" type="line"/>
      <point x="725" y="137" type="line"/>
      <point x="771" y="137" type="line"/>
      <point x="756" y="71" type="line"/>
      <point x="711" y="71" type="line"/>
    </contour>
    <contour>
      <point x="172" y="323" type="qcurve" smooth="yes"/>
      <point x="64" y="323"/>
      <point x="36" y="395" type="qcurve"/>
      <point x="100" y="441" type="line"/>
      <point x="119" y="394"/>
      <point x="173" y="394" type="qcurve" smooth="yes"/>
      <point x="195" y="394"/>
      <point x="233" y="415"/>
      <point x="238" y="449" type="qcurve"/>
      <point x="238" y="482"/>
      <point x="186" y="482" type="qcurve" smooth="yes"/>
      <point x="145" y="482" type="line"/>
      <point x="159" y="554" type="line"/>
      <point x="197" y="554" type="line" smooth="yes"/>
      <point x="256" y="554"/>
      <point x="262" y="588" type="qcurve"/>
      <point x="264" y="602" type="line"/>
      <point x="262" y="633"/>
      <point x="219" y="633" type="qcurve" smooth="yes"/>
      <point x="174" y="633"/>
      <point x="139" y="589" type="qcurve"/>
      <point x="90" y="644" type="line"/>
      <point x="140" y="704"/>
      <point x="231" y="704" type="qcurve" smooth="yes"/>
      <point x="286" y="704"/>
      <point x="358" y="659"/>
      <point x="358" y="614" type="qcurve" smooth="yes"/>
      <point x="358" y="540"/>
      <point x="268" y="521" type="qcurve"/>
      <point x="268" y="519" type="line"/>
      <point x="332" y="507"/>
      <point x="332" y="445" type="qcurve" smooth="yes"/>
      <point x="332" y="395"/>
      <point x="255" y="323"/>
    </contour>
    <contour>
      <point x="170" y="0" type="line"/>
      <point x="63" y="0" type="line"/>
      <point x="711" y="698" type="line"/>
      <point x="817" y="698" type="line"/>
    </contour>
  </outline>
</glyph>
<glyph name="questiondown" format="2">
  <advance width="487"/>
  <unicode hex="00BF"/>
  <outline>
    <contour>
      <point x="181" y="-187" type="qcurve" smooth="yes"/>
      <point x="96" y="-187"/>
      <point x="-18" y="-105"/>
      <point x="-18" y="-20" type="qcurve" smooth="yes"/>
      <point x="-18" y="67"/>
      <point x="101" y="191"/>
      <point x="194" y="213" type="qcurve"/>
      <point x="212" y="295" type="line"/>
      <point x="337" y="295" type="line"/>
      <point x="305" y="140" type="line"/>
      <point x="119" y="124"/>
      <point x="119" y="-5" type="qcurve" smooth="yes"/>
      <point x="119" y="-43"/>
      <point x="167" y="-74"/>
      <point x="199" y="-74" type="qcurve" smooth="yes"/>
      <point x="281" y="-74"/>
      <point x="317" y="20" type="qcurve"/>
      <point x="422" y="-26" type="line"/>
      <point x="350" y="-187"/>
    </contour>
    <contour>
      <point x="287" y="368" type="qcurve" smooth="yes"/>
      <point x="215" y="368"/>
      <point x="215" y="423" type="qcurve" smooth="yes"/>
      <point x="215" y="535"/>
      <point x="315" y="535" type="qcurve" smooth="yes"/>
      <point x="385" y="535"/>
      <point x="387" y="480" type="qcurve"/>
      <point x="387" y="368"/>
    </contour>
  </outline>
</glyph>
<glyph name="Udieresis" format="2">
  <advance width="674"/>
  <unicode hex="00DC"/>
  <outline>
    <contour>
      <point x="303" y="-12" type="qcurve" smooth="yes"/>
      <point x="74" y="-12"/>
      <point x="74" y="209" type="qcurve" smooth="yes"/>
      <point x="74" y="251"/>
      <point x="83" y="301" type="qcurve"/>
      <point x="163" y="698" type="line"/>
      <point x="294" y="698" type="line"/>
      <point x="211" y="280" type="line" smooth="yes"/>
      <point x="203" y="243"/>
      <point x="203" y="216" type="qcurve" smooth="yes"/>
      <point x="204" y="109"/>
      <point x="310" y="109" type="qcurve" smooth="yes"/>
      <point x="442" y="109"/>
      <point x="467" y="273" type="qcurve"/>
      <point x="484" y="366"/>
      <point x="507" y="478"/>
      <point x="532" y="598"/>
      <point x="552" y="698" type="qcurve"/>
      <point x="684" y="698" type="line"/>
      <point x="599" y="276" type="line" smooth="yes"/>
      <point x="570" y="121"/>
      <point x="427" y="-12"/>
    </contour>
    <contour>
      <point x="335" y="765" type="qcurve" smooth="yes"/>
      <point x="274" y="765"/>
      <point x="274" y="811" type="qcurve" smooth="yes"/>
      <point x="274" y="908"/>
      <point x="360" y="908" type="qcurve" smooth="yes"/>
      <point x="420" y="908"/>
      <point x="420" y="862" type="qcurve" smooth="yes"/>
      <point x="420" y="765"/>
    </contour>
    <contour>
      <point x="531" y="765" type="qcurve" smooth="yes"/>
      <point x="471" y="765"/>
      <point x="471" y="811" type="qcurve" smooth="yes"/>
      <point x="471" y="908"/>
      <point x="556" y="908" type="qcurve" smooth="yes"/>
      <point x="616" y="908"/>
      <point x="616" y="862" type="qcurve" smooth="yes"/>
      <point x="616" y="765"/>
    </contour>
  </outline>
</glyph>
<glyph name="Thorn" format="2">
  <advance width="625"/>
  <unicode hex="00DE"/>
  <outline>
    <contour>
      <point x="366" y="255" type="line" smooth="yes"/>
      <point x="444" y="255"/>
      <point x="464" y="331" type="qcurve"/>
      <point x="476" y="388"/>
      <point x="476" y="396" type="qcurve" smooth="yes"/>
      <point x="476" y="455"/>
      <point x="405" y="455" type="qcurve" smooth="yes"/>
      <point x="248" y="455" type="line"/>
      <point x="210" y="255" type="line"/>
    </contour>
    <contour>
      <point x="158" y="0" type="line"/>
      <point x="25" y="0" type="line"/>
      <point x="165" y="698" type="line"/>
      <point x="298" y="698" type="line"/>
      <point x="273" y="573" type="line"/>
      <point x="402" y="573" type="line" smooth="yes"/>
      <point x="477" y="573"/>
      <point x="570" y="525"/>
      <point x="613" y="442"/>
      <point x="613" y="390" type="qcurve" smooth="yes"/>
      <point x="613" y="275"/>
      <point x="461" y="138"/>
      <point x="349" y="138" type="qcurve" smooth="yes"/>
      <point x="185" y="138" type="line"/>
    </contour>
  </outline>
</glyph>
<glyph name="eth" format="2">
  <advance width="571"/>
  <unicode hex="00F0"/>
  <outline>
    <contour>
      <point x="250" y="88" type="qcurve" smooth="yes"/>
      <point x="292" y="88"/>
      <point x="350" y="144"/>
      <point x="369" y="211" type="qcurve" smooth="yes"/>
      <point x="384" y="266"/>
      <point x="384" y="307" type="qcurve" smooth="yes"/>
      <point x="384" y="397"/>
      <point x="298" y="399" type="qcurve"/>
      <point x="250" y="399"/>
      <point x="191" y="331"/>
      <point x="179" y="273" type="qcurve"/>
      <point x="165" y="217"/>
      <point x="163" y="188" type="qcurve"/>
      <point x="164" y="180" type="line"/>
      <point x="164" y="139"/>
      <point x="206" y="88"/>
    </contour>
    <contour>
      <point x="241" y="-12" type="qcurve" smooth="yes"/>
      <point x="182" y="-12"/>
      <point x="88" y="34"/>
      <point x="34" y="131"/>
      <point x="34" y="209" type="qcurve" smooth="yes"/>
      <point x="34" y="332"/>
      <point x="170" y="501"/>
      <point x="264" y="501" type="qcurve" smooth="yes"/>
      <point x="366" y="501"/>
      <point x="398" y="401" type="qcurve"/>
      <point x="407" y="401" type="line"/>
      <point x="389" y="508"/>
      <point x="332" y="588" type="qcurve"/>
      <point x="228" y="532" type="line"/>
      <point x="197" y="591" type="line"/>
      <point x="289" y="641" type="line"/>
      <point x="224" y="707"/>
      <point x="169" y="740" type="qcurve"/>
      <point x="349" y="740" type="line"/>
      <point x="374" y="720"/>
      <point x="396" y="698" type="qcurve"/>
      <point x="493" y="751" type="line"/>
      <point x="525" y="692" type="line"/>
      <point x="441" y="646" type="line"/>
      <point x="530" y="523"/>
      <point x="530" y="346" type="qcurve" smooth="yes"/>
      <point x="530" y="232"/>
      <point x="455" y="72"/>
      <point x="325" y="-12"/>
    </contour>
  </outline>
</glyph>
<glyph name="Abreve" format="2">
  <advance width="651"/>
  <unicode hex="0102"/>
  <outline>
    <contour>
      <point x="418" y="288" type="line"/>
      <point x="393" y="577" type="line"/>
      <point x="385" y="577" type="line"/>
      <point x="249" y="288" type="line"/>
    </contour>
    <contour>
      <point x="580" y="0" type="line"/>
      <point x="446" y="0" type="line"/>
      <point x="428" y="176" type="line"/>
      <point x="196" y="176" type="line"/>
      <point x="109" y="0" type="line"/>
      <point x="-33" y="0" type="line"/>
      <point x="328" y="698" type="line"/>
      <point x="498" y="698" type="line"/>
    </contour>
    <contour>
      <point x="422" y="744" type="qcurve" smooth="yes"/>
      <point x="352" y="744"/>
      <point x="268" y="837"/>
      <point x="259" y="908" type="qcurve"/>
      <point x="332" y="945" type="line"/>
      <point x="344" y="920" type="line"/>
      <point x="351" y="902"/>
      <point x="367" y="875"/>
      <point x="396" y="838"/>
      <point x="424" y="838" type="qcurve"/>
      <point x="459" y="839"/>
      <point x="506" y="881"/>
      <point x="537" y="924" type="qcurve"/>
      <point x="553" y="945" type="line"/>
      <point x="629" y="904" type="line"/>
      <point x="550" y="744"/>
    </contour>
  </outline>
</glyph>
<glyph name="Cacute" format="2">
  <advance width="629"/>
  <unicode hex="0106"/>
  <outline>
    <contour>
      <point x="303" y="-12" type="qcurve" smooth="yes"/>
      <point x="194" y="-12"/>
      <point x="57" y="129"/>
      <point x="57" y="271" type="qcurve" smooth="yes"/>
      <point x="57" y="394"/>
      <point x="148" y="593"/>
      <point x="308" y="710"/>
      <point x="410" y="710" type="qcurve" smooth="yes"/>
      <point x="593" y="710"/>
      <point x="644" y="542" type="qcurve"/>
      <point x="526" y="492" type="line"/>
      <point x="512" y="542"/>
      <point x="453" y="592"/>
      <point x="400" y="592" type="qcurve" smooth="yes"/>
      <point x="321" y="592"/>
      <point x="233" y="489"/>
      <point x="218" y="410" type="qcurve" smooth="yes"/>
      <point x="196" y="299" type="line"/>
      <point x="191" y="268"/>
      <point x="191" y="246" type="qcurve" smooth="yes"/>
      <point x="191" y="106"/>
      <point x="314" y="106" type="qcurve" smooth="yes"/>
      <point x="426" y="106"/>
      <point x="475" y="215" type="qcurve"/>
      <point x="586" y="164" type="line"/>
      <point x="491" y="-12"/>
    </contour>
    <contour>
      <point x="442" y="742" type="line"/>
      <point x="364" y="784" type="line"/>
      <point x="480" y="971" type="line"/>
      <point x="584" y="915" type="line"/>
    </contour>
  </outline>
</glyph>
<glyph name="Ccaron" format="2">
  <advance width="629"/>
  <unicode hex="010C"/>
  <outline>
    <contour>
      <point x="303" y="-12" type="qcurve" smooth="yes"/>
      <point x="194" y="-12"/>
      <point x="57" y="129"/>
      <point x="57" y="271" type="qcurve" smooth="yes"/>
      <point x="57" y="394"/>
      <point x="148" y="593"/>
      <point x="308" y="710"/>
      <point x="410" y="710" type="qcurve" smooth="yes"/>
      <point x="593" y="710"/>
      <point x="644" y="542" type="qcurve"/>
      <point x="526" y="492" type="line"/>
      <point x="512" y="542"/>
      <point x="453" y="592"/>
      <point x="400" y="592" type="qcurve" smooth="yes"/>
      <point x="321" y="592"/>
      <point x="233" y="489"/>
      <point x="218" y="410" type="qcurve" smooth="yes"/>
      <point x="196" y="299" type="line"/>
      <point x="191" y="268"/>
      <point x="191" y="246" type="qcurve" smooth="yes"/>
      <point x="191" y="106"/>
      <point x="314" y="106" type="qcurve" smooth="yes"/>
      <point x="426" y="106"/>
      <point x="475" y="215" type="qcurve"/>
      <point x="586" y="164" type="line"/>
      <point x="491" y="-12"/>
    </contour>
    <contour>
      <point x="484" y="752" type="line"/>
      <point x="366" y="752" type="line"/>
      <point x="269" y="907" type="line"/>
      <point x="337" y="960" type="line"/>
      <point x="432" y="844" type="line"/>
      <point x="570" y="960" type="line"/>
      <point x="636" y="907" type="line"/>
    </contour>
  </outline>
</glyph>
<glyph name="gcircumflex" format="2">
  <advance width="570"/>
  <unicode hex="011D"/>
  <outline>
    <contour>
      <point x="240" y="106" type="qcurve"/>
      <point x="291" y="106"/>
      <point x="367" y="195"/>
      <point x="382" y="262" type="qcurve"/>
      <point x="391" y="315" type="line"/>
      <point x="397" y="345"/>
      <point x="397" y="353" type="qcurve" smooth="yes"/>
      <point x="397" y="380"/>
      <point x="360" y="429"/>
      <point x="309" y="429" type="qcurve" smooth="yes"/>
      <point x="209" y="429"/>
      <point x="185" y="304" type="qcurve" smooth="yes"/>
      <point x="183" y="293" type="line"/>
      <point x="168" y="225"/>
      <point x="168" y="189" type="qcurve" smooth="yes"/>
      <point x="168" y="110"/>
    </contour>
    <contour>
      <point x="205" y="-212" type="qcurve" smooth="yes"/>
      <point x="67" y="-212"/>
      <point x="-2" y="-119" type="qcurve"/>
      <point x="81" y="-44" type="line"/>
      <point x="123" y="-108"/>
      <point x="202" y="-108" type="qcurve" smooth="yes"/>
      <point x="306" y="-108"/>
      <point x="333" y="21" type="qcurve" smooth="yes"/>
      <point x="355" y="131" type="line"/>
      <point x="350" y="131" type="line"/>
      <point x="293" y="-1"/>
      <point x="180" y="-1" type="qcurve" smooth="yes"/>
      <point x="129" y="-1"/>
      <point x="66" y="48"/>
      <point x="37" y="132"/>
      <point x="37" y="184" type="qcurve" smooth="yes"/>
      <point x="37" y="285"/>
      <point x="96" y="443"/>
      <point x="206" y="535"/>
      <point x="280" y="535" type="qcurve" smooth="yes"/>
      <point x="338" y="535"/>
      <point x="404" y="477"/>
      <point x="411" y="434" type="qcurve"/>
      <point x="416" y="434" type="line"/>
      <point x="434" y="523" type="line"/>
      <point x="562" y="523" type="line"/>
      <point x="460" y="14" type="line"/>
      <point x="441" y="-95"/>
      <point x="323" y="-212"/>
    </contour>
    <contour>
      <point x="456" y="581" type="line"/>
      <point x="358" y="696" type="line"/>
      <point x="223" y="581" type="line"/>
      <point x="159" y="634" type="line"/>
      <point x="311" y="789" type="line"/>
      <point x="428" y="789" type="line"/>
      <point x="525" y="633" type="line"/>
    </contour>
  </outline>
</glyph>
<glyph name="gbreve" format="2">
  <advance width="570"/>
  <unicode hex="011F"/>
  <outline>
    <contour>
      <point x="240" y="106" type="qcurve"/>
      <point x="291" y="106"/>
      <point x="367" y="195"/>
      <point x="382" y="262" type="qcurve"/>
      <point x="391" y="315" type="line"/>
      <point x="397" y="345"/>
      <point x="397" y="353" type="qcurve" smooth="yes"/>
      <point x="397" y="380"/>
      <point x="360" y="429"/>
      <point x="309" y="429" type="qcurve" smooth="yes"/>
      <point x="209" y="429"/>
      <point x="185" y="304" type="qcurve" smooth="yes"/>
      <point x="183" y="293" type="line"/>
      <point x="168" y="225"/>
      <point x="168" y="189" type="qcurve" smooth="yes"/>
      <point x="168" y="110"/>
    </contour>
    <contour>
      <point x="205" y="-212" type="qcurve" smooth="yes"/>
      <point x="67" y="-212"/>
      <point x="-2" y="-119" type="qcurve"/>
      <point x="81" y="-44" type="line"/>
      <point x="123" y="-108"/>
      <point x="202" y="-108" type="qcurve" smooth="yes"/>
      <point x="306" y="-108"/>
      <point x="333" y="21" type="qcurve" smooth="yes"/>
      <point x="355" y="131" type="line"/>
      <point x="350" y="131" type="line"/>
      <point x="293" y="-1"/>
      <point x="180" y="-1" type="qcurve" smooth="yes"/>
      <point x="129" y="-1"/>
      <point x="66" y="48"/>
      <point x="37" y="132"/>
      <point x="37" y="184" type="qcurve" smooth="yes"/>
      <point x="37" y="285"/>
      <point x="96" y="443"/>
      <point x="206" y="535"/>
      <point x="280" y="535" type="qcurve" smooth="yes"/>
      <point x="338" y="535"/>
      <point x="404" y="477"/>
      <point x="411" y="434" type="qcurve"/>
      <point x="416" y="434" type="line"/>
      <point x="434" y="523" type="line"/>
      <point x="562" y="523" type="line"/>
      <point x="460" y="14" type="line"/>
      <point x="441" y="-95"/>
      <point x="323" y="-212"/>
    </contour>
    <contour>
      <point x="341" y="582" type="qcurve" smooth="yes"/>
      <point x="289" y="582"/>
      <point x="223" y="628"/>
      <point x="186" y="702"/>
      <point x="178" y="746" type="qcurve"/>
      <point x="252" y="783" type="line"/>
      <point x="266" y="751"/>
      <point x="281" y="724" type="qcurve"/>
      <point x="302" y="676"/>
      <point x="348" y="676" type="qcurve" smooth="yes"/>
      <point x="380" y="676"/>
      <point x="426" y="721"/>
      <point x="459" y="766" type="qcurve" smooth="yes"/>
      <point x="472" y="783" type="line"/>
      <point x="548" y="742" type="line"/>
      <point x="510" y="660"/>
      <point x="434" y="606" type="qcurve"/>
      <point x="395" y="582"/>
    </contour>
  </outline>
</glyph>
<glyph name="Iogonek" format="2">
  <advance width="289"/>
  <unicode hex="012E"/>
  <outline>
    <contour>
      <point x="58" y="-211" type="qcurve" smooth="yes"/>
      <point x="15" y="-211"/>
      <point x="-57" y="-174"/>
      <point x="-57" y="-130" type="qcurve" smooth="yes"/>
      <point x="-57" y="-47"/>
      <point x="79" y="-4" type="qcurve"/>
      <point x="78" y="0" type="line"/>
      <point x="25" y="0" type="line"/>
      <point x="166" y="698" type="line"/>
      <point x="299" y="698" type="line"/>
      <point x="158" y="0" type="line"/>
      <point x="89" y="-42"/>
      <point x="39" y="-92"/>
      <point x="39" y="-113" type="qcurve" smooth="yes"/>
      <point x="39" y="-142"/>
      <point x="74" y="-142" type="qcurve" smooth="yes"/>
      <point x="108" y="-142"/>
      <point x="128" y="-115" type="qcurve"/>
      <point x="177" y="-164" type="line"/>
      <point x="144" y="-211"/>
    </contour>
  </outline>
</glyph>
<glyph name="Ldot" format="2">
  <advance width="507"/>
  <unicode hex="013F"/>
  <outline>
    <contour>
      <point x="410" y="306" type="qcurve" smooth="yes"/>
      <point x="340" y="306"/>
      <point x="340" y="360" type="qcurve" smooth="yes"/>
      <point x="340" y="462"/>
      <point x="433" y="462" type="qcurve" smooth="yes"/>
      <point x="503" y="462"/>
      <point x="503" y="408" type="qcurve" smooth="yes"/>
      <point x="503" y="395"/>
      <point x="500" y="389" type="qcurve"/>
      <point x="498" y="349"/>
      <point x="458" y="306"/>
    </contour>
    <contour>
      <point x="420" y="0" type="line"/>
      <point x="25" y="0" type="line"/>
      <point x="165" y="698" type="line"/>
      <point x="298" y="698" type="line"/>
      <point x="182" y="117" type="line"/>
      <point x="444" y="117" type="line"/>
    </contour>
  </outline>
</glyph>
<glyph name="Ohungarumlaut" format="2">
  <advance width="692"/>
  <unicode hex="0150"/>
  <outline>
    <contour>
      <point x="316" y="106" type="qcurve" smooth="yes"/>
      <point x="402" y="106"/>
      <point x="493" y="218"/>
      <point x="507" y="308" type="qcurve"/>
      <point x="514" y="338" type="line" smooth="yes"/>
      <point x="522" y="373"/>
      <point x="529" y="416"/>
      <point x="531" y="455" type="qcurve"/>
      <point x="529" y="592"/>
      <point x="406" y="592" type="qcurve" smooth="yes"/>
      <point x="322" y="592"/>
      <point x="229" y="481"/>
      <point x="215" y="389" type="qcurve"/>
      <point x="209" y="364" type="line" smooth="yes"/>
      <point x="191" y="290"/>
      <point x="191" y="243" type="qcurve" smooth="yes"/>
      <point x="191" y="106"/>
    </contour>
    <contour>
      <point x="306" y="-12" type="qcurve" smooth="yes"/>
      <point x="234" y="-12"/>
      <point x="122" y="52"/>
      <point x="57" y="177"/>
      <point x="57" y="269" type="qcurve" smooth="yes"/>
      <point x="57" y="347"/>
      <point x="103" y="504"/>
      <point x="193" y="632"/>
      <point x="327" y="710"/>
      <point x="415" y="710" type="qcurve" smooth="yes"/>
      <point x="534" y="710"/>
      <point x="665" y="557"/>
      <point x="665" y="429" type="qcurve" smooth="yes"/>
      <point x="665" y="347"/>
      <point x="617" y="189"/>
      <point x="524" y="63"/>
      <point x="391" y="-12"/>
    </contour>
    <contour>
      <point x="358" y="743" type="line"/>
      <point x="287" y="778" type="line"/>
      <point x="399" y="967" type="line"/>
      <point x="496" y="915" type="line"/>
    </contour>
    <contour>
      <point x="546" y="743" type="line"/>
      <point x="476" y="778" type="line"/>
      <point x="587" y="967" type="line"/>
      <point x="684" y="915" type="line"/>
    </contour>
  </outline>
</glyph>
<glyph name="Ycircumflex" format="2">
  <advance width="615"/>
  <unicode hex="0176"/>
  <outline>
    <contour>
      <point x="320" y="0" type="line"/>
      <point x="187" y="0" type="line"/>
      <point x="241" y="271" type="line"/>
      <point x="94" y="698" type="line"/>
      <point x="229" y="698" type="line"/>
      <point x="327" y="395" type="line"/>
      <point x="334" y="395" type="line"/>
      <point x="544" y="698" type="line"/>
      <point x="691" y="698" type="line"/>
      <point x="372" y="261" type="line"/>
    </contour>
    <contour>
      <point x="506" y="743" type="line"/>
      <point x="409" y="858" type="line"/>
      <point x="274" y="743" type="line"/>
      <point x="209" y="795" type="line"/>
      <point x="362" y="951" type="line"/>
      <point x="479" y="951" type="line"/>
      <point x="575" y="795" type="line"/>
    </contour>
  </outline>
</glyph>
<glyph name="tcommaaccent" format="2">
  <advance width="347"/>
  <unicode hex="021B"/>
  <outline>
    <contour>
      <point x="103" y="-269" type="qcurve"/>
      <point x="25" y="-269" type="line"/>
      <point x="73" y="-233"/>
      <point x="100" y="-175" type="qcurve"/>
      <point x="63" y="-167"/>
      <point x="63" y="-132" type="qcurve"/>
      <point x="68" y="-90"/>
      <point x="101" y="-47"/>
      <point x="138" y="-47" type="qcurve" smooth="yes"/>
      <point x="192" y="-47"/>
      <point x="196" y="-86" type="qcurve"/>
      <point x="197" y="-91" type="line"/>
      <point x="195" y="-114" type="line"/>
      <point x="172" y="-218"/>
    </contour>
    <contour>
      <point x="264" y="0" type="line"/>
      <point x="174" y="0" type="line" smooth="yes"/>
      <point x="61" y="0"/>
      <point x="61" y="96" type="qcurve" smooth="yes"/>
      <point x="61" y="113"/>
      <point x="122" y="420" type="qcurve"/>
      <point x="47" y="420" type="line"/>
      <point x="68" y="523" type="line"/>
      <point x="104" y="523" type="line" smooth="yes"/>
      <point x="134" y="523"/>
      <point x="158" y="547"/>
      <point x="162" y="576" type="qcurve"/>
      <point x="180" y="665" type="line"/>
      <point x="299" y="665" type="line"/>
      <point x="271" y="523" type="line"/>
      <point x="376" y="523" type="line"/>
      <point x="355" y="420" type="line"/>
      <point x="249" y="420" type="line"/>
      <point x="187" y="104" type="line"/>
      <point x="284" y="104" type="line"/>
    </contour>
  </outline>
</glyph>
<glyph name="ogonek" format="2">
  <advance width="586"/>
  <unicode hex="02DB"/>
  <outline>
    <contour>
      <point x="193" y="-211" type="qcurve" smooth="yes"/>
      <point x="149" y="-211"/>
      <point x="78" y="-174"/>
      <point x="78" y="-130" type="qcurve" smooth="yes"/>
      <point x="78" y="-47"/>
      <point x="214" y="-4" type="qcurve"/>
      <point x="211" y="13" type="line"/>
      <point x="275" y="19" type="line"/>
      <point x="293" y="0" type="line"/>
      <point x="226" y="-40"/>
      <point x="174" y="-91"/>
      <point x="174" y="-113" type="qcurve" smooth="yes"/>
      <point x="174" y="-142"/>
      <point x="209" y="-142" type="qcurve" smooth="yes"/>
      <point x="243" y="-142"/>
      <point x="263" y="-115" type="qcurve"/>
      <point x="312" y="-164" type="line"/>
      <point x="279" y="-211"/>
    </contour>
  </outline>
</glyph>
<glyph name="ringcomb" format="2">
  <unicode hex="030A"/>
  <outline>
    <contour>
      <point x="14" y="630" type="qcurve" smooth="yes"/>
      <point x="48" y="630"/>
      <point x="80" y="691"/>
      <point x="80" y="728" type="qcurve" smooth="yes"/>
      <point x="80" y="768"/>
      <point x="38" y="768" type="qcurve" smooth="yes"/>
      <point x="12" y="768"/>
      <point x="-17" y="735"/>
      <point x="-29" y="689"/>
      <point x="-29" y="670" type="qcurve" smooth="yes"/>
      <point x="-29" y="630"/>
    </contour>
    <contour>
      <point x="8" y="561" type="qcurve" smooth="yes"/>
      <point x="-42" y="561"/>
      <point x="-115" y="621"/>
      <point x="-115" y="679" type="qcurve" smooth="yes"/>
      <point x="-115" y="750"/>
      <point x="-20" y="837"/>
      <point x="44" y="837" type="qcurve" smooth="yes"/>
      <point x="94" y="837"/>
      <point x="166" y="775"/>
      <point x="166" y="719" type="qcurve" smooth="yes"/>
      <point x="166" y="644"/>
      <point x="70" y="561"/>
    </contour>
  </outline>
</glyph>
<glyph name="Omicrontonos" format="2">
  <advance width="734"/>
  <unicode hex="038C"/>
  <outline>
    <contour>
      <point x="358" y="103" type="qcurve" smooth="yes"/>
      <point x="434" y="103"/>
      <point x="531" y="204"/>
      <point x="550" y="295" type="qcurve" smooth="yes"/>
      <point x="566" y="373" type="line" smooth="yes"/>
      <point x="570" y="395"/>
      <point x="577" y="438"/>
      <point x="577" y="455" type="qcurve" smooth="yes"/>
      <point x="577" y="523"/>
      <point x="512" y="595"/>
      <point x="448" y="595" type="qcurve" smooth="yes"/>
      <point x="371" y="595"/>
      <point x="273" y="492"/>
      <point x="256" y="403" type="qcurve" smooth="yes"/>
      <point x="240" y="325" type="line" smooth="yes"/>
      <point x="236" y="304"/>
      <point x="230" y="263"/>
      <point x="230" y="243" type="qcurve" smooth="yes"/>
      <point x="230" y="176"/>
      <point x="293" y="103"/>
    </contour>
    <contour>
      <point x="348" y="-12" type="qcurve" smooth="yes"/>
      <point x="299" y="-12"/>
      <point x="209" y="20"/>
      <point x="140" y="89"/>
      <point x="99" y="194"/>
      <point x="99" y="268" type="qcurve" smooth="yes"/>
      <point x="99" y="354"/>
      <point x="150" y="514"/>
      <point x="243" y="637"/>
      <point x="376" y="710"/>
      <point x="458" y="710" type="qcurve" smooth="yes"/>
      <point x="507" y="710"/>
      <point x="597" y="677"/>
      <point x="666" y="608"/>
      <point x="707" y="503"/>
      <point x="707" y="430" type="qcurve" smooth="yes"/>
      <point x="707" y="343"/>
      <point x="656" y="184"/>
      <point x="563" y="61"/>
      <point x="430" y="-12"/>
    </contour>
    <contour>
      <point x="131" y="580" type="line"/>
      <point x="51" y="605" type="line"/>
      <point x="121" y="806" type="line"/>
      <point x="234" y="778" type="line"/>
    </contour>
  </outline>
</glyph>
<glyph name="Alpha" format="2">
  <advance width="651"/>
  <unicode hex="0391"/>
  <outline>
    <contour>
      <point x="392" y="580" type="line"/>
      <point x="385" y="580" type="line"/>
      <point x="245" y="288" type="line"/>
      <point x="419" y="288" type="line"/>
    </contour>
    <contour>
      <point x="447" y="0" type="line"/>
      <point x="428" y="179" type="line"/>
      <point x="193" y="179" type="line"/>
      <point x="105" y="0" type="line"/>
      <point x="-33" y="0" type="line"/>
      <point x="329" y="698" type="line"/>
      <point x="495" y="698" type="line"/>
      <point x="578" y="0" type="line"/>
    </contour>
  </outline>
</glyph>
<glyph name="Sigma" format="2">
  <advance width="585"/>
  <unicode hex="03A3"/>
  <outline>
    <contour>
      <point x="-9" y="0" type="line"/>
      <point x="14" y="115" type="line"/>
      <point x="286" y="355" type="line"/>
      <point x="116" y="582" type="line"/>
      <point x="140" y="698" type="line"/>
      <point x="619" y="698" type="line"/>
      <point x="596" y="584" type="line"/>
      <point x="259" y="584" type="line"/>
      <point x="437" y="345" type="line"/>
      <point x="176" y="114" type="line"/>
      <point x="507" y="114" type="line"/>
      <point x="484" y="0" type="line"/>
    </contour>
  </outline>
</glyph>
<glyph name="Chi" format="2">
  <advance width="632"/>
  <unicode hex="03A7"/>
  <outline>
    <contour>
      <point x="554" y="0" type="line"/>
      <point x="415" y="0" type="line"/>
      <point x="311" y="254" type="line"/>
      <point x="304" y="254" type="line"/>
      <point x="112" y="0" type="line"/>
      <point x="-37" y="0" type="line"/>
      <point x="252" y="366" type="line"/>
      <point x="107" y="698" type="line"/>
      <point x="245" y="698" type="line"/>
      <point x="346" y="454" type="line"/>
      <point x="353" y="454" type="line"/>
      <point x="542" y="698" type="line"/>
      <point x="692" y="698" type="line"/>
      <point x="403" y="346" type="line"/>
    </contour>
  </outline>
</glyph>
<glyph name="uni03A9" format="2">
  <advance width="686"/>
  <unicode hex="03A9"/>
  <outline>
    <contour>
      <point x="29" y="32" type="line"/>
      <point x="198" y="32" type="line"/>
      <point x="201" y="51" type="line"/>
      <point x="180" y="68"/>
      <point x="159" y="89" type="qcurve" smooth="yes"/>
      <point x="139" y="110"/>
      <point x="124" y="137" type="qcurve" smooth="yes"/>
      <point x="109" y="165"/>
      <point x="100" y="199" type="qcurve" smooth="yes"/>
      <point x="91" y="234"/>
      <point x="91" y="279" type="qcurve" smooth="yes"/>
      <point x="91" y="348"/>
      <point x="109" y="424" type="qcurve" smooth="yes"/>
      <point x="127" y="500"/>
      <point x="166" y="563" type="qcurve" smooth="yes"/>
      <point x="204" y="626"/>
      <point x="267" y="668" type="qcurve" smooth="yes"/>
      <point x="330" y="710"/>
      <point x="419" y="710" type="qcurve"/>
      <point x="419" y="710"/>
      <point x="419" y="710" type="qcurve"/>
      <point x="419" y="710"/>
      <point x="419" y="710" type="qcurve"/>
      <point x="419" y="710"/>
      <point x="419" y="710" type="qcurve"/>
      <point x="420" y="710" type="line"/>
      <point x="420" y="710"/>
      <point x="420" y="710" type="qcurve"/>
      <point x="420" y="710"/>
      <point x="420" y="710" type="qcurve"/>
      <point x="420" y="710"/>
      <point x="420" y="710" type="qcurve"/>
      <point x="422" y="710" type="line" smooth="yes"/>
      <point x="524" y="710"/>
      <point x="582" y="652" type="qcurve" smooth="yes"/>
      <point x="642" y="594"/>
      <point x="642" y="482" type="qcurve" smooth="yes"/>
      <point x="642" y="480" type="line"/>
      <point x="642" y="480"/>
      <point x="642" y="480" type="qcurve"/>
      <point x="642" y="480"/>
      <point x="642" y="480" type="qcurve"/>
      <point x="642" y="480"/>
      <point x="642" y="480" type="qcurve"/>
      <point x="642" y="480"/>
      <point x="642" y="480" type="qcurve"/>
      <point x="642" y="480"/>
      <point x="642" y="480" type="qcurve"/>
      <point x="642" y="477" type="line" smooth="yes"/>
      <point x="642" y="321"/>
      <point x="581" y="212" type="qcurve" smooth="yes"/>
      <point x="519" y="101"/>
      <point x="407" y="50" type="qcurve"/>
      <point x="403" y="32" type="line"/>
      <point x="570" y="32" type="line"/>
      <point x="565" y="0" type="line"/>
      <point x="365" y="0" type="line"/>
      <point x="377" y="64" type="line"/>
      <point x="452" y="97"/>
      <point x="509" y="161" type="qcurve" smooth="yes"/>
      <point x="566" y="227"/>
      <point x="584" y="320" type="qcurve" smooth="yes"/>
      <point x="598" y="393" type="line"/>
      <point x="604" y="416"/>
      <point x="605" y="440" type="qcurve"/>
      <point x="607" y="458"/>
      <point x="607" y="476" type="qcurve" smooth="yes"/>
      <point x="607" y="479" type="line"/>
      <point x="607" y="479"/>
      <point x="607" y="479" type="qcurve"/>
      <point x="607" y="479"/>
      <point x="607" y="479" type="qcurve"/>
      <point x="607" y="479"/>
      <point x="607" y="479" type="qcurve"/>
      <point x="607" y="482" type="line"/>
      <point x="607" y="482"/>
      <point x="607" y="482" type="qcurve"/>
      <point x="607" y="482"/>
      <point x="607" y="482" type="qcurve"/>
      <point x="607" y="489" type="line"/>
      <point x="607" y="489"/>
      <point x="607" y="489" type="qcurve"/>
      <point x="607" y="490" type="line"/>
      <point x="607" y="490"/>
      <point x="607" y="490" type="qcurve"/>
      <point x="607" y="490"/>
      <point x="607" y="490" type="qcurve"/>
      <point x="607" y="492" type="line" smooth="yes"/>
      <point x="607" y="581"/>
      <point x="558" y="628" type="qcurve"/>
      <point x="511" y="677"/>
      <point x="421" y="677" type="qcurve"/>
      <point x="421" y="677"/>
      <point x="421" y="677" type="qcurve"/>
      <point x="421" y="677"/>
      <point x="421" y="677" type="qcurve"/>
      <point x="421" y="677"/>
      <point x="421" y="677" type="qcurve"/>
      <point x="421" y="677"/>
      <point x="421" y="677" type="qcurve"/>
      <point x="420" y="677" type="line"/>
      <point x="420" y="677"/>
      <point x="420" y="677" type="qcurve"/>
      <point x="420" y="677"/>
      <point x="420" y="677" type="qcurve"/>
      <point x="420" y="677"/>
      <point x="420" y="677" type="qcurve"/>
      <point x="420" y="677"/>
      <point x="420" y="677" type="qcurve"/>
      <point x="420" y="677"/>
      <point x="420" y="677" type="qcurve"/>
      <point x="419" y="677" type="line"/>
      <point x="419" y="677"/>
      <point x="419" y="677" type="qcurve"/>
      <point x="419" y="677"/>
      <point x="419" y="677" type="qcurve"/>
      <point x="419" y="677"/>
      <point x="419" y="677" type="qcurve"/>
      <point x="417" y="677" type="line"/>
      <point x="417" y="677"/>
      <point x="417" y="677" type="qcurve"/>
      <point x="417" y="677"/>
      <point x="417" y="677" type="qcurve"/>
      <point x="416" y="677" type="line"/>
      <point x="416" y="677"/>
      <point x="416" y="677" type="qcurve"/>
      <point x="416" y="677"/>
      <point x="416" y="677" type="qcurve"/>
      <point x="416" y="677"/>
      <point x="416" y="677" type="qcurve"/>
      <point x="416" y="677"/>
      <point x="416" y="677" type="qcurve"/>
      <point x="415" y="677" type="line"/>
      <point x="415" y="677"/>
      <point x="415" y="677" type="qcurve"/>
      <point x="415" y="677"/>
      <point x="415" y="677" type="qcurve"/>
      <point x="415" y="677"/>
      <point x="415" y="677" type="qcurve"/>
      <point x="415" y="677"/>
      <point x="415" y="677" type="qcurve"/>
      <point x="415" y="677"/>
      <point x="415" y="677" type="qcurve"/>
      <point x="414" y="677" type="line"/>
      <point x="414" y="677"/>
      <point x="414" y="677" type="qcurve"/>
      <point x="414" y="677"/>
      <point x="414" y="677" type="qcurve"/>
      <point x="414" y="677"/>
      <point x="414" y="677" type="qcurve"/>
      <point x="412" y="677" type="line"/>
      <point x="412" y="677"/>
      <point x="412" y="677" type="qcurve"/>
      <point x="412" y="677"/>
      <point x="412" y="677" type="qcurve"/>
      <point x="411" y="677" type="line" smooth="yes"/>
      <point x="363" y="677"/>
      <point x="322" y="660" type="qcurve"/>
      <point x="278" y="644"/>
      <point x="243" y="610" type="qcurve" smooth="yes"/>
      <point x="209" y="577"/>
      <point x="183" y="527" type="qcurve" smooth="yes"/>
      <point x="158" y="478"/>
      <point x="146" y="415" type="qcurve" smooth="yes"/>
      <point x="132" y="345" type="line"/>
      <point x="130" y="330"/>
      <point x="128" y="310" type="qcurve"/>
      <point x="128" y="290"/>
      <point x="127" y="271" type="qcurve"/>
      <point x="127" y="271"/>
      <point x="127" y="271" type="qcurve"/>
      <point x="127" y="271"/>
      <point x="127" y="271" type="qcurve"/>
      <point x="127" y="271"/>
      <point x="127" y="271" type="qcurve"/>
      <point x="127" y="271"/>
      <point x="127" y="271" type="qcurve"/>
      <point x="127" y="271"/>
      <point x="127" y="271" type="qcurve"/>
      <point x="127" y="271"/>
      <point x="127" y="271" type="qcurve"/>
      <point x="127" y="271"/>
      <point x="127" y="270" type="qcurve"/>
      <point x="127" y="270"/>
      <point x="127" y="270" type="qcurve"/>
      <point x="127" y="269" type="line"/>
      <point x="127" y="269"/>
      <point x="127" y="269" type="qcurve"/>
      <point x="127" y="269"/>
      <point x="127" y="269" type="qcurve"/>
      <point x="127" y="269"/>
      <point x="127" y="269" type="qcurve"/>
      <point x="127" y="269"/>
      <point x="127" y="269" type="qcurve"/>
      <point x="127" y="269"/>
      <point x="127" y="269" type="qcurve"/>
      <point x="127" y="269"/>
      <point x="127" y="269" type="qcurve"/>
      <point x="127" y="269"/>
      <point x="127" y="268" type="qcurve"/>
      <point x="127" y="268"/>
      <point x="127" y="268" type="qcurve"/>
      <point x="127" y="268"/>
      <point x="127" y="268" type="qcurve"/>
      <point x="127" y="268"/>
      <point x="127" y="268" type="qcurve"/>
      <point x="127" y="268"/>
      <point x="127" y="268" type="qcurve"/>
      <point x="127" y="268"/>
      <point x="127" y="268" type="qcurve"/>
      <point x="127" y="268"/>
      <point x="127" y="268" type="qcurve"/>
      <point x="127" y="268"/>
      <point x="127" y="268" type="qcurve"/>
      <point x="127" y="268"/>
      <point x="127" y="267" type="qcurve"/>
      <point x="127" y="267"/>
      <point x="127" y="267" type="qcurve"/>
      <point x="127" y="264" type="line"/>
      <point x="127" y="264"/>
      <point x="127" y="264" type="qcurve"/>
      <point x="127" y="264"/>
      <point x="127" y="264" type="qcurve"/>
      <point x="127" y="264"/>
      <point x="127" y="264" type="qcurve"/>
      <point x="127" y="263" type="line" smooth="yes"/>
      <point x="127" y="228"/>
      <point x="135" y="198" type="qcurve" smooth="yes"/>
      <point x="144" y="166"/>
      <point x="158" y="141" type="qcurve"/>
      <point x="173" y="118"/>
      <point x="193" y="98" type="qcurve"/>
      <point x="214" y="80"/>
      <point x="236" y="64" type="qcurve"/>
      <point x="223" y="0" type="line"/>
      <point x="23" y="0" type="line"/>
    </contour>
    <contour>
      <point x="607" y="488" type="qcurve"/>
      <point x="607" y="488"/>
      <point x="607" y="488" type="qcurve"/>
      <point x="607" y="488"/>
    </contour>
    <contour>
      <point x="607" y="477" type="qcurve"/>
      <point x="607" y="477"/>
      <point x="607" y="477" type="qcurve"/>
      <point x="607" y="477"/>
    </contour>
  </outline>
</glyph>
<glyph name="iotatonos" format="2">
  <advance width="303"/>
  <unicode hex="03AF"/>
  <outline>
    <contour>
      <point x="241" y="0" type="line"/>
      <point x="159" y="0" type="line" smooth="yes"/>
      <point x="103" y="0"/>
      <point x="42" y="41"/>
      <point x="42" y="90" type="qcurve" smooth="yes"/>
      <point x="42" y="98"/>
      <point x="44" y="117"/>
      <point x="46" y="128" type="qcurve" smooth="yes"/>
      <point x="125" y="523" type="line"/>
      <point x="249" y="523" type="line"/>
      <point x="164" y="101" type="line"/>
      <point x="261" y="101" type="line"/>
    </contour>
    <contour>
      <point x="238" y="580" type="line"/>
      <point x="158" y="605" type="line"/>
      <point x="228" y="806" type="line"/>
      <point x="341" y="778" type="line"/>
    </contour>
  </outline>
</glyph>
<glyph name="sigmafinal" format="2">
  <advance width="483"/>
  <unicode hex="03C2"/>
  <outline>
    <contour>
      <point x="255" y="-12" type="line"/>
      <point x="215" y="1" type="line" smooth="yes"/>
      <point x="167" y="17"/>
      <point x="99" y="57"/>
      <point x="56" y="108"/>
      <point x="35" y="173"/>
      <point x="35" y="215" type="qcurve" smooth="yes"/>
      <point x="35" y="280"/>
      <point x="72" y="396"/>
      <point x="142" y="484"/>
      <point x="243" y="535"/>
      <point x="307" y="535" type="qcurve" smooth="yes"/>
      <point x="380" y="535"/>
      <point x="479" y="463"/>
      <point x="491" y="402" type="qcurve"/>
      <point x="386" y="361" type="line"/>
      <point x="375" y="395"/>
      <point x="339" y="433"/>
      <point x="300" y="433" type="qcurve" smooth="yes"/>
      <point x="242" y="433"/>
      <point x="162" y="330"/>
      <point x="159" y="223" type="qcurve"/>
      <point x="159" y="205"/>
      <point x="163" y="193" type="qcurve"/>
      <point x="170" y="162"/>
      <point x="218" y="126"/>
      <point x="261" y="112" type="qcurve" smooth="yes"/>
      <point x="303" y="98" type="line" smooth="yes"/>
      <point x="339" y="85"/>
      <point x="376" y="47"/>
      <point x="376" y="13" type="qcurve" smooth="yes"/>
      <point x="376" y="-16"/>
      <point x="359" y="-50" type="qcurve" smooth="yes"/>
      <point x="300" y="-173" type="line"/>
      <point x="198" y="-132" type="line"/>
    </contour>
  </outline>
</glyph>
<glyph name="chi" format="2">
  <advance width="527"/>
  <unicode hex="03C7"/>
  <outline>
    <contour>
      <point x="147" y="523" type="line" smooth="yes"/>
      <point x="194" y="523"/>
      <point x="231" y="476"/>
      <point x="239" y="428" type="qcurve"/>
      <point x="262" y="260" type="line"/>
      <point x="267" y="260" type="line"/>
      <point x="422" y="523" type="line"/>
      <point x="559" y="523" type="line"/>
      <point x="324" y="163" type="line"/>
      <point x="374" y="-99" type="line"/>
      <point x="442" y="-99" type="line"/>
      <point x="423" y="-200" type="line"/>
      <point x="345" y="-200" type="line" smooth="yes"/>
      <point x="307" y="-200"/>
      <point x="261" y="-163"/>
      <point x="256" y="-121" type="qcurve"/>
      <point x="228" y="79" type="line"/>
      <point x="223" y="79" type="line"/>
      <point x="59" y="-200" type="line"/>
      <point x="-78" y="-200" type="line"/>
      <point x="168" y="177" type="line"/>
      <point x="119" y="422" type="line"/>
      <point x="50" y="422" type="line"/>
      <point x="70" y="523" type="line"/>
    </contour>
  </outline>
</glyph>
<glyph name="omicrontonos" format="2">
  <advance width="544"/>
  <unicode hex="03CC"/>
  <outline>
    <contour>
      <point x="293" y="90" type="qcurve" smooth="yes"/>
      <point x="338" y="90"/>
      <point x="400" y="153"/>
      <point x="412" y="216" type="qcurve" smooth="yes"/>
      <point x="431" y="311" type="line"/>
      <point x="431" y="316"/>
      <point x="433" y="331"/>
      <point x="433" y="340" type="qcurve" smooth="yes"/>
      <point x="433" y="382"/>
      <point x="390" y="433"/>
      <point x="347" y="433" type="qcurve" smooth="yes"/>
      <point x="301" y="433"/>
      <point x="239" y="368"/>
      <point x="228" y="306" type="qcurve"/>
      <point x="209" y="211" type="line"/>
      <point x="207" y="204"/>
      <point x="207" y="197" type="qcurve" smooth="yes"/>
      <point x="207" y="182" type="line" smooth="yes"/>
      <point x="207" y="141"/>
      <point x="249" y="90"/>
    </contour>
    <contour>
      <point x="287" y="-12" type="qcurve" smooth="yes"/>
      <point x="242" y="-12"/>
      <point x="167" y="15"/>
      <point x="113" y="70"/>
      <point x="83" y="151"/>
      <point x="83" y="205" type="qcurve" smooth="yes"/>
      <point x="83" y="269"/>
      <point x="120" y="388"/>
      <point x="190" y="480"/>
      <point x="290" y="535"/>
      <point x="353" y="535" type="qcurve" smooth="yes"/>
      <point x="396" y="535"/>
      <point x="470" y="508"/>
      <point x="525" y="454"/>
      <point x="556" y="372"/>
      <point x="556" y="317" type="qcurve" smooth="yes"/>
      <point x="556" y="252"/>
      <point x="519" y="134"/>
      <point x="449" y="42"/>
      <point x="349" y="-12"/>
    </contour>
    <contour>
      <point x="407" y="580" type="line"/>
      <point x="327" y="605" type="line"/>
      <point x="397" y="806" type="line"/>
      <point x="510" y="778" type="line"/>
    </contour>
  </outline>
</glyph>
<glyph name="Jecyr" format="2">
  <advance width="529"/>
  <unicode hex="0408"/>
  <outline>
    <contour>
      <point x="207" y="-11" type="qcurve" smooth="yes"/>
      <point x="107" y="-11"/>
      <point x="10" y="93"/>
      <point x="5" y="175" type="qcurve"/>
      <point x="131" y="200" type="line"/>
      <point x="137" y="105"/>
      <point x="207" y="105" type="qcurve" smooth="yes"/>
      <point x="284" y="105"/>
      <point x="306" y="203" type="qcurve"/>
      <point x="405" y="698" type="line"/>
      <point x="539" y="698" type="line"/>
      <point x="436" y="189" type="line" smooth="yes"/>
      <point x="419" y="98"/>
      <point x="308" y="-11"/>
    </contour>
  </outline>
</glyph>
<glyph name="Ishortcyr" format="2">
  <advance width="697"/>
  <unicode hex="0419"/>
  <outline>
    <contour>
      <point x="566" y="0" type="line"/>
      <point x="437" y="0" type="line"/>
      <point x="504" y="336" type="line"/>
      <point x="524" y="410" type="line"/>
      <point x="530" y="428"/>
      <point x="535" y="446" type="qcurve" smooth="yes"/>
      <point x="542" y="470" type="line" smooth="yes"/>
      <point x="547" y="488"/>
      <point x="553" y="506" type="qcurve"/>
      <point x="550" y="506" type="line"/>
      <point x="458" y="374" type="line"/>
      <point x="145" y="0" type="line"/>
      <point x="25" y="0" type="line"/>
      <point x="165" y="698" type="line"/>
      <point x="294" y="698" type="line"/>
      <point x="280" y="627" type="line" smooth="yes"/>
      <point x="243" y="436"/>
      <point x="207" y="287" type="qcurve"/>
      <point x="179" y="192" type="line"/>
      <point x="182" y="192" type="line"/>
      <point x="274" y="324" type="line"/>
      <point x="586" y="698" type="line"/>
      <point x="706" y="698" type="line"/>
    </contour>
    <contour>
      <point x="447" y="745" type="qcurve" smooth="yes"/>
      <point x="340" y="745"/>
      <point x="307" y="850" type="qcurve"/>
      <point x="290" y="900" type="line"/>
      <point x="396" y="940" type="line"/>
      <point x="413" y="842" type="line"/>
      <point x="433" y="835"/>
      <point x="459" y="835" type="qcurve" smooth="yes"/>
      <point x="488" y="835"/>
      <point x="502" y="842" type="qcurve"/>
      <point x="550" y="940" type="line"/>
      <point x="651" y="898" type="line"/>
      <point x="622" y="850" type="line"/>
      <point x="564" y="745"/>
    </contour>
  </outline>
</glyph>
<glyph name="Ylongcyr" format="2">
  <advance width="902"/>
  <unicode hex="042B"/>
  <outline>
    <contour>
      <point x="343" y="117" type="line" smooth="yes"/>
      <point x="388" y="117"/>
      <point x="436" y="175"/>
      <point x="453" y="244"/>
      <point x="453" y="265" type="qcurve" smooth="yes"/>
      <point x="453" y="321"/>
      <point x="386" y="321" type="qcurve" smooth="yes"/>
      <point x="222" y="321" type="line"/>
      <point x="182" y="117" type="line"/>
    </contour>
    <contour>
      <point x="771" y="0" type="line"/>
      <point x="639" y="0" type="line"/>
      <point x="779" y="698" type="line"/>
      <point x="911" y="698" type="line"/>
    </contour>
    <contour>
      <point x="326" y="0" type="qcurve" smooth="yes"/>
      <point x="25" y="0" type="line"/>
      <point x="166" y="698" type="line"/>
      <point x="299" y="698" type="line"/>
      <point x="247" y="438" type="line"/>
      <point x="382" y="438" type="line" smooth="yes"/>
      <point x="492" y="438"/>
      <point x="591" y="336"/>
      <point x="591" y="255" type="qcurve" smooth="yes"/>
      <point x="591" y="171"/>
      <point x="516" y="58"/>
      <point x="395" y="0"/>
    </contour>
  </outline>
</glyph>
<glyph name="Softcyr" format="2">
  <advance width="628"/>
  <unicode hex="042C"/>
  <outline>
    <contour>
      <point x="345" y="117" type="line" smooth="yes"/>
      <point x="390" y="117"/>
      <point x="438" y="175"/>
      <point x="455" y="244"/>
      <point x="455" y="265" type="qcurve" smooth="yes"/>
      <point x="455" y="321"/>
      <point x="387" y="321" type="qcurve" smooth="yes"/>
      <point x="222" y="321" type="line"/>
      <point x="182" y="117" type="line"/>
    </contour>
    <contour>
      <point x="328" y="0" type="qcurve" smooth="yes"/>
      <point x="25" y="0" type="line"/>
      <point x="166" y="698" type="line"/>
      <point x="299" y="698" type="line"/>
      <point x="247" y="438" type="line"/>
      <point x="384" y="438" type="line" smooth="yes"/>
      <point x="494" y="438"/>
      <point x="592" y="337"/>
      <point x="592" y="255" type="qcurve" smooth="yes"/>
      <point x="592" y="174"/>
      <point x="520" y="60"/>
      <point x="400" y="0"/>
    </contour>
  </outline>
</glyph>
<glyph name="softcyr" format="2">
  <advance width="539"/>
  <unicode hex="044C"/>
  <outline>
    <contour>
      <point x="266" y="96" type="line" smooth="yes"/>
      <point x="316" y="96"/>
      <point x="364" y="164"/>
      <point x="364" y="209" type="qcurve" smooth="yes"/>
      <point x="364" y="233"/>
      <point x="333" y="266"/>
      <point x="299" y="266" type="qcurve" smooth="yes"/>
      <point x="199" y="266" type="line"/>
      <point x="165" y="96" type="line"/>
    </contour>
    <contour>
      <point x="277" y="0" type="qcurve" smooth="yes"/>
      <point x="18" y="0" type="line"/>
      <point x="123" y="523" type="line"/>
      <point x="251" y="523" type="line"/>
      <point x="218" y="361" type="line"/>
      <point x="345" y="361" type="line" smooth="yes"/>
      <point x="423" y="361"/>
      <point x="491" y="277"/>
      <point x="491" y="217" type="qcurve" smooth="yes"/>
      <point x="491" y="146"/>
      <point x="434" y="49"/>
      <point x="337" y="0"/>
    </contour>
  </outline>
</glyph>
<glyph name="Geupcyr" format="2">
  <advance width="495"/>
  <unicode hex="0490"/>
  <outline>
    <contour>
      <point x="158" y="0" type="line"/>
      <point x="25" y="0" type="line"/>
      <point x="165" y="698" type="line"/>
      <point x="431" y="698" type="line"/>
      <point x="463" y="849" type="line"/>
      <point x="587" y="849" type="line"/>
      <point x="532" y="581" type="line"/>
      <point x="274" y="581" type="line"/>
    </contour>
  </outline>
</glyph>
<glyph name="Entailcyr" format="2">
  <advance width="750"/>
  <unicode hex="04A2"/>
  <outline>
    <contour>
      <point x="644" y="-150" type="line"/>
      <point x="520" y="-150" type="line"/>
      <point x="550" y="0" type="line"/>
      <point x="433" y="0" type="line"/>
      <point x="493" y="294" type="line"/>
      <point x="217" y="294" type="line"/>
      <point x="158" y="0" type="line"/>
      <point x="25" y="0" type="line"/>
      <point x="165" y="698" type="line"/>
      <point x="298" y="698" type="line"/>
      <point x="241" y="411" type="line"/>
      <point x="516" y="411" type="line"/>
      <point x="573" y="698" type="line"/>
      <point x="706" y="698" type="line"/>
      <point x="590" y="118" type="line"/>
      <point x="699" y="118" type="line"/>
    </contour>
  </outline>
</glyph>
<glyph name="xatailcyr" format="2">
  <advance width="529"/>
  <unicode hex="04B3"/>
  <outline>
    <contour>
      <point x="449" y="-140" type="line"/>
      <point x="335" y="-140" type="line"/>
      <point x="363" y="0" type="line"/>
      <point x="310" y="0" type="line"/>
      <point x="239" y="179" type="line"/>
      <point x="233" y="179" type="line"/>
      <point x="94" y="0" type="line"/>
      <point x="-47" y="0" type="line"/>
      <point x="183" y="273" type="line"/>
      <point x="68" y="523" type="line"/>
      <point x="206" y="523" type="line"/>
      <point x="274" y="344" type="line"/>
      <point x="280" y="344" type="line"/>
      <point x="417" y="523" type="line"/>
      <point x="558" y="523" type="line"/>
      <point x="330" y="254" type="line"/>
      <point x="400" y="104" type="line"/>
      <point x="498" y="104" type="line"/>
    </contour>
  </outline>
</glyph>
<glyph name="Chetailcyr" format="2">
  <advance width="704"/>
  <unicode hex="04B6"/>
  <outline>
    <contour>
      <point x="598" y="-150" type="line"/>
      <point x="474" y="-150" type="line"/>
      <point x="504" y="0" type="line"/>
      <point x="388" y="0" type="line"/>
      <point x="439" y="257" type="line"/>
      <point x="434" y="257" type="line"/>
      <point x="379" y="229"/>
      <point x="293" y="229" type="qcurve" smooth="yes"/>
      <point x="199" y="229"/>
      <point x="93" y="319"/>
      <point x="93" y="410" type="qcurve" smooth="yes"/>
      <point x="93" y="437"/>
      <point x="97" y="469" type="qcurve"/>
      <point x="142" y="698" type="line"/>
      <point x="275" y="698" type="line"/>
      <point x="234" y="497" type="line" smooth="yes"/>
      <point x="226" y="459"/>
      <point x="226" y="433" type="qcurve" smooth="yes"/>
      <point x="226" y="347"/>
      <point x="324" y="347" type="qcurve" smooth="yes"/>
      <point x="408" y="347"/>
      <point x="461" y="367" type="qcurve"/>
      <point x="528" y="698" type="line"/>
      <point x="660" y="698" type="line"/>
      <point x="544" y="118" type="line"/>
      <point x="653" y="118" type="line"/>
    </contour>
  </outline>
</glyph>
<glyph name="Chevertcyr" format="2">
  <advance width="667"/>
  <unicode hex="04B8"/>
  <outline>
    <contour>
      <point x="536" y="0" type="line"/>
      <point x="404" y="0" type="line"/>
      <point x="456" y="257" type="line"/>
      <point x="451" y="257" type="line"/>
      <point x="416" y="241"/>
      <point x="369" y="233" type="qcurve"/>
      <point x="344" y="106" type="line"/>
      <point x="246" y="106" type="line"/>
      <point x="270" y="230" type="line"/>
      <point x="93" y="245"/>
      <point x="93" y="410" type="qcurve" smooth="yes"/>
      <point x="93" y="437"/>
      <point x="97" y="469" type="qcurve"/>
      <point x="142" y="698" type="line"/>
      <point x="275" y="698" type="line"/>
      <point x="234" y="497" type="line" smooth="yes"/>
      <point x="226" y="461"/>
      <point x="226" y="433" type="qcurve" smooth="yes"/>
      <point x="226" y="359"/>
      <point x="294" y="351" type="qcurve"/>
      <point x="323" y="502" type="line"/>
      <point x="421" y="502" type="line"/>
      <point x="391" y="349" type="line"/>
      <point x="442" y="354"/>
      <point x="478" y="367" type="qcurve"/>
      <point x="544" y="698" type="line"/>
      <point x="676" y="698" type="line"/>
    </contour>
  </outline>
</glyph>
<glyph name="chevertcyr" format="2">
  <advance width="569"/>
  <unicode hex="04B9"/>
  <outline>
    <contour>
      <point x="446" y="0" type="line"/>
      <point x="318" y="0" type="line"/>
      <point x="369" y="247" type="line"/>
      <point x="363" y="247" type="line"/>
      <point x="337" y="197"/>
      <point x="295" y="174" type="qcurve"/>
      <point x="275" y="76" type="line"/>
      <point x="194" y="76" type="line"/>
      <point x="210" y="158" type="line"/>
      <point x="61" y="163"/>
      <point x="61" y="285" type="qcurve" smooth="yes"/>
      <point x="61" y="335"/>
      <point x="72" y="379" type="qcurve"/>
      <point x="101" y="523" type="line"/>
      <point x="229" y="523" type="line"/>
      <point x="197" y="363" type="line" smooth="yes"/>
      <point x="193" y="343"/>
      <point x="193" y="318" type="qcurve" smooth="yes"/>
      <point x="193" y="279"/>
      <point x="232" y="270" type="qcurve"/>
      <point x="261" y="411" type="line"/>
      <point x="343" y="411" type="line"/>
      <point x="314" y="269" type="line"/>
      <point x="378" y="283"/>
      <point x="396" y="389" type="qcurve"/>
      <point x="423" y="523" type="line"/>
      <point x="551" y="523" type="line"/>
    </contour>
  </outline>
</glyph>
<glyph name="Idieresiscyr" format="2">
  <advance width="697"/>
  <unicode hex="04E4"/>
  <outline>
    <contour>
      <point x="566" y="0" type="line"/>
      <point x="437" y="0" type="line"/>
      <point x="504" y="336" type="line"/>
      <point x="524" y="410" type="line"/>
      <point x="530" y="428"/>
      <point x="535" y="446" type="qcurve" smooth="yes"/>
      <point x="542" y="470" type="line" smooth="yes"/>
      <point x="547" y="488"/>
      <point x="553" y="506" type="qcurve"/>
      <point x="550" y="506" type="line"/>
      <point x="458" y="374" type="line"/>
      <point x="145" y="0" type="line"/>
      <point x="25" y="0" type="line"/>
      <point x="165" y="698" type="line"/>
      <point x="294" y="698" type="line"/>
      <point x="280" y="627" type="line" smooth="yes"/>
      <point x="243" y="436"/>
      <point x="207" y="287" type="qcurve"/>
      <point x="179" y="192" type="line"/>
      <point x="182" y="192" type="line"/>
      <point x="274" y="324" type="line"/>
      <point x="586" y="698" type="line"/>
      <point x="706" y="698" type="line"/>
    </contour>
    <contour>
      <point x="352" y="765" type="qcurve" smooth="yes"/>
      <point x="292" y="765"/>
      <point x="292" y="811" type="qcurve" smooth="yes"/>
      <point x="292" y="908"/>
      <point x="377" y="908" type="qcurve" smooth="yes"/>
      <point x="437" y="908"/>
      <point x="437" y="862" type="qcurve" smooth="yes"/>
      <point x="437" y="765"/>
    </contour>
    <contour>
      <point x="548" y="765" type="qcurve" smooth="yes"/>
      <point x="488" y="765"/>
      <point x="488" y="811" type="qcurve" smooth="yes"/>
      <point x="488" y="908"/>
      <point x="574" y="908" type="qcurve" smooth="yes"/>
      <point x="633" y="908"/>
      <point x="633" y="862" type="qcurve" smooth="yes"/>
      <point x="633" y="765"/>
    </contour>
  </outline>
</glyph>
<glyph name="Obarcyr" format="2">
  <advance width="692"/>
  <unicode hex="04E8"/>
  <outline>
    <contour>
      <point x="314" y="98" type="qcurve" smooth="yes"/>
      <point x="470" y="98"/>
      <point x="512" y="292" type="qcurve"/>
      <point x="188" y="292" type="line"/>
      <point x="183" y="261"/>
      <point x="183" y="237" type="qcurve" smooth="yes"/>
      <point x="184" y="98"/>
    </contour>
    <contour>
      <point x="535" y="409" type="line"/>
      <point x="539" y="437"/>
      <point x="539" y="463" type="qcurve" smooth="yes"/>
      <point x="537" y="600"/>
      <point x="407" y="600" type="qcurve" smooth="yes"/>
      <point x="253" y="600"/>
      <point x="210" y="409" type="qcurve"/>
    </contour>
    <contour>
      <point x="306" y="-12" type="qcurve" smooth="yes"/>
      <point x="234" y="-12"/>
      <point x="122" y="52"/>
      <point x="57" y="177"/>
      <point x="57" y="269" type="qcurve" smooth="yes"/>
      <point x="57" y="347"/>
      <point x="103" y="504"/>
      <point x="193" y="632"/>
      <point x="327" y="710"/>
      <point x="415" y="710" type="qcurve" smooth="yes"/>
      <point x="534" y="710"/>
      <point x="665" y="557"/>
      <point x="665" y="429" type="qcurve" smooth="yes"/>
      <point x="665" y="347"/>
      <point x="617" y="189"/>
      <point x="524" y="63"/>
      <point x="391" y="-12"/>
    </contour>
  </outline>
</glyph>
<glyph name="Chedieresiscyr" format="2">
  <advance width="651"/>
  <unicode hex="04F4"/>
  <outline>
    <contour>
      <point x="520" y="0" type="line"/>
      <point x="388" y="0" type="line"/>
      <point x="440" y="257" type="line"/>
      <point x="435" y="257" type="line"/>
      <point x="382" y="229"/>
      <point x="293" y="229" type="qcurve" smooth="yes"/>
      <point x="199" y="229"/>
      <point x="93" y="319"/>
      <point x="93" y="410" type="qcurve" smooth="yes"/>
      <point x="93" y="437"/>
      <point x="97" y="469" type="qcurve"/>
      <point x="142" y="698" type="line"/>
      <point x="275" y="698" type="line"/>
      <point x="234" y="497" type="line" smooth="yes"/>
      <point x="226" y="459"/>
      <point x="226" y="433" type="qcurve" smooth="yes"/>
      <point x="226" y="347"/>
      <point x="324" y="347" type="qcurve" smooth="yes"/>
      <point x="408" y="347"/>
      <point x="462" y="367" type="qcurve"/>
      <point x="528" y="698" type="line"/>
      <point x="660" y="698" type="line"/>
    </contour>
    <contour>
      <point x="318" y="765" type="qcurve" smooth="yes"/>
      <point x="257" y="765"/>
      <point x="257" y="811" type="qcurve" smooth="yes"/>
      <point x="257" y="908"/>
      <point x="343" y="908" type="qcurve" smooth="yes"/>
      <point x="403" y="908"/>
      <point x="403" y="862" type="qcurve" smooth="yes"/>
      <point x="403" y="765"/>
    </contour>
    <contour>
      <point x="514" y="765" type="qcurve" smooth="yes"/>
      <point x="454" y="765"/>
      <point x="454" y="811" type="qcurve" smooth="yes"/>
      <point x="454" y="908"/>
      <point x="539" y="908" type="qcurve" smooth="yes"/>
      <point x="599" y="908"/>
      <point x="599" y="862" type="qcurve" smooth="yes"/>
      <point x="599" y="765"/>
    </contour>
  </outline>
</glyph>
<glyph name="wdieresis" format="2">
  <advance width="781"/>
  <unicode hex="1E85"/>
  <outline>
    <contour>
      <point x="572" y="0" type="line"/>
      <point x="435" y="0" type="line"/>
      <point x="406" y="361" type="line"/>
      <point x="401" y="361" type="line"/>
      <point x="319" y="180"/>
      <point x="235" y="0" type="qcurve"/>
      <point x="96" y="0" type="line"/>
      <point x="58" y="523" type="line"/>
      <point x="185" y="523" type="line"/>
      <point x="196" y="141" type="line"/>
      <point x="202" y="141" type="line"/>
      <point x="373" y="523" type="line"/>
      <point x="493" y="523" type="line"/>
      <point x="507" y="333"/>
      <point x="519" y="136" type="qcurve"/>
      <point x="525" y="136" type="line"/>
      <point x="685" y="523" type="line"/>
      <point x="811" y="523" type="line"/>
    </contour>
    <contour>
      <point x="352" y="603" type="qcurve" smooth="yes"/>
      <point x="291" y="603"/>
      <point x="291" y="649" type="qcurve" smooth="yes"/>
      <point x="291" y="745"/>
      <point x="377" y="745" type="qcurve" smooth="yes"/>
      <point x="437" y="745"/>
      <point x="437" y="700" type="qcurve" smooth="yes"/>
      <point x="437" y="603"/>
    </contour>
    <contour>
      <point x="548" y="603" type="qcurve" smooth="yes"/>
      <point x="488" y="603"/>
      <point x="488" y="649" type="qcurve" smooth="yes"/>
      <point x="488" y="745"/>
      <point x="573" y="745" type="qcurve" smooth="yes"/>
      <point x="633" y="745"/>
      <point x="633" y="700" type="qcurve" smooth="yes"/>
      <point x="633" y="603"/>
    </contour>
  </outline>
</glyph>
<glyph name="Abreveacute" format="2">
  <advance width="651"/>
  <unicode hex="1EAE"/>
  <outline>
    <contour>
      <point x="418" y="288" type="line"/>
      <point x="393" y="577" type="line"/>
      <point x="385" y="577" type="line"/>
      <point x="249" y="288" type="line"/>
    </contour>
    <contour>
      <point x="580" y="0" type="line"/>
      <point x="446" y="0" type="line"/>
      <point x="428" y="176" type="line"/>
      <point x="196" y="176" type="line"/>
      <point x="109" y="0" type="line"/>
      <point x="-33" y="0" type="line"/>
      <point x="328" y="698" type="line"/>
      <point x="498" y="698" type="line"/>
    </contour>
    <contour>
      <point x="457" y="888" type="line"/>
      <point x="387" y="925" type="line"/>
      <point x="492" y="1115" type="line"/>
      <point x="592" y="1061" type="line"/>
    </contour>
    <contour>
      <point x="423" y="737" type="qcurve" smooth="yes"/>
      <point x="346" y="737"/>
      <point x="259" y="823"/>
      <point x="251" y="883" type="qcurve"/>
      <point x="321" y="924" type="line"/>
      <point x="333" y="902" type="line"/>
      <point x="342" y="883"/>
      <point x="360" y="856"/>
      <point x="374" y="844" type="qcurve" smooth="yes"/>
      <point x="392" y="828"/>
      <point x="424" y="828" type="qcurve" smooth="yes"/>
      <point x="456" y="828"/>
      <point x="495" y="846"/>
      <point x="527" y="878"/>
      <point x="566" y="924" type="qcurve"/>
      <point x="633" y="883" type="line"/>
      <point x="590" y="806"/>
      <point x="488" y="737"/>
    </contour>
  </outline>
</glyph>
<glyph name="Abrevegrave" format="2">
  <advance width="651"/>
  <unicode hex="1EB0"/>
  <outline>
    <contour>
      <point x="418" y="288" type="line"/>
      <point x="393" y="577" type="line"/>
      <point x="385" y="577" type="line"/>
      <point x="249" y="288" type="line"/>
    </contour>
    <contour>
      <point x="580" y="0" type="line"/>
      <point x="446" y="0" type="line"/>
      <point x="428" y="176" type="line"/>
      <point x="196" y="176" type="line"/>
      <point x="109" y="0" type="line"/>
      <point x="-33" y="0" type="line"/>
      <point x="328" y="698" type="line"/>
      <point x="498" y="698" type="line"/>
    </contour>
    <contour>
      <point x="421" y="889" type="line"/>
      <point x="326" y="1063" type="line"/>
      <point x="436" y="1113" type="line"/>
      <point x="497" y="924" type="line"/>
    </contour>
    <contour>
      <point x="423" y="737" type="qcurve" smooth="yes"/>
      <point x="346" y="737"/>
      <point x="259" y="823"/>
      <point x="251" y="883" type="qcurve"/>
      <point x="321" y="924" type="line"/>
      <point x="333" y="902" type="line"/>
      <point x="342" y="883"/>
      <point x="360" y="856"/>
      <point x="374" y="844" type="qcurve" smooth="yes"/>
      <point x="392" y="828"/>
      <point x="424" y="828" type="qcurve" smooth="yes"/>
      <point x="456" y="828"/>
      <point x="495" y="846"/>
      <point x="527" y="878"/>
      <point x="566" y="924" type="qcurve"/>
      <point x="633" y="883" type="line"/>
      <point x="590" y="806"/>
      <point x="488" y="737"/>
    </contour>
  </outline>
</glyph>
<glyph name="Abrevehoi" format="2">
  <advance width="651"/>
  <unicode hex="1EB2"/>
  <outline>
    <contour>
      <point x="418" y="288" type="line"/>
      <point x="393" y="577" type="line"/>
      <point x="385" y="577" type="line"/>
      <point x="249" y="288" type="line"/>
    </contour>
    <contour>
      <point x="580" y="0" type="line"/>
      <point x="446" y="0" type="line"/>
      <point x="428" y="176" type="line"/>
      <point x="196" y="176" type="line"/>
      <point x="109" y="0" type="line"/>
      <point x="-33" y="0" type="line"/>
      <point x="328" y="698" type="line"/>
      <point x="498" y="698" type="line"/>
    </contour>
    <contour>
      <point x="454" y="878" type="qcurve"/>
      <point x="391" y="910" type="line"/>
      <point x="447" y="1008" type="line"/>
      <point x="337" y="1008" type="line"/>
      <point x="355" y="1100" type="line"/>
      <point x="484" y="1100" type="line" smooth="yes"/>
      <point x="525" y="1100"/>
      <point x="558" y="1067"/>
      <point x="558" y="1045" type="qcurve" smooth="yes"/>
      <point x="558" y="1005"/>
      <point x="504" y="931"/>
    </contour>
    <contour>
      <point x="423" y="737" type="qcurve" smooth="yes"/>
      <point x="346" y="737"/>
      <point x="259" y="823"/>
      <point x="251" y="883" type="qcurve"/>
      <point x="321" y="924" type="line"/>
      <point x="333" y="902" type="line"/>
      <point x="342" y="883"/>
      <point x="360" y="856"/>
      <point x="374" y="844" type="qcurve" smooth="yes"/>
      <point x="392" y="828"/>
      <point x="424" y="828" type="qcurve" smooth="yes"/>
      <point x="456" y="828"/>
      <point x="495" y="846"/>
      <point x="527" y="878"/>
      <point x="566" y="924" type="qcurve"/>
      <point x="633" y="883" type="line"/>
      <point x="590" y="806"/>
      <point x="488" y="737"/>
    </contour>
  </outline>
</glyph>
<glyph name="Ehoi" format="2">
  <advance width="576"/>
  <unicode hex="1EBA"/>
  <outline>
    <contour>
      <point x="478" y="0" type="line"/>
      <point x="25" y="0" type="line"/>
      <point x="165" y="698" type="line"/>
      <point x="607" y="698" type="line"/>
      <point x="583" y="581" type="line"/>
      <point x="275" y="581" type="line"/>
      <point x="241" y="411" type="line"/>
      <point x="514" y="411" type="line"/>
      <point x="491" y="294" type="line"/>
      <point x="217" y="294" type="line"/>
      <point x="182" y="117" type="line"/>
      <point x="502" y="117" type="line"/>
    </contour>
    <contour>
      <point x="437" y="734" type="line"/>
      <point x="373" y="766" type="line"/>
      <point x="426" y="862" type="line"/>
      <point x="309" y="862" type="line"/>
      <point x="327" y="957" type="line"/>
      <point x="466" y="957" type="line" smooth="yes"/>
      <point x="507" y="957"/>
      <point x="540" y="924"/>
      <point x="540" y="902" type="qcurve" smooth="yes"/>
      <point x="540" y="842"/>
      <point x="478" y="782" type="qcurve"/>
    </contour>
  </outline>
</glyph>
<glyph name="etilde" format="2">
  <advance width="514"/>
  <unicode hex="1EBD"/>
  <outline>
    <contour>
      <point x="178" y="294" type="line"/>
      <point x="285" y="298"/>
      <point x="375" y="338"/>
      <point x="375" y="380" type="qcurve" smooth="yes"/>
      <point x="375" y="436"/>
      <point x="309" y="436" type="qcurve" smooth="yes"/>
      <point x="205" y="436"/>
      <point x="181" y="309" type="qcurve" smooth="yes"/>
    </contour>
    <contour>
      <point x="251" y="-12" type="qcurve" smooth="yes"/>
      <point x="137" y="-12"/>
      <point x="35" y="112"/>
      <point x="35" y="212" type="qcurve" smooth="yes"/>
      <point x="35" y="296"/>
      <point x="112" y="456"/>
      <point x="197" y="507" type="qcurve"/>
      <point x="249" y="535"/>
      <point x="317" y="535" type="qcurve" smooth="yes"/>
      <point x="367" y="535"/>
      <point x="450" y="505"/>
      <point x="500" y="441"/>
      <point x="500" y="391" type="qcurve" smooth="yes"/>
      <point x="500" y="219"/>
      <point x="164" y="210" type="qcurve"/>
      <point x="162" y="196"/>
      <point x="162" y="184" type="qcurve" smooth="yes"/>
      <point x="162" y="93"/>
      <point x="260" y="93" type="qcurve" smooth="yes"/>
      <point x="336" y="93"/>
      <point x="394" y="167" type="qcurve"/>
      <point x="473" y="104" type="line"/>
      <point x="388" y="-12"/>
    </contour>
    <contour>
      <point x="416" y="603" type="qcurve" smooth="yes"/>
      <point x="380" y="603"/>
      <point x="343" y="623" type="qcurve"/>
      <point x="295" y="647"/>
      <point x="270" y="647" type="qcurve" smooth="yes"/>
      <point x="254" y="647"/>
      <point x="228" y="634"/>
      <point x="211" y="622" type="qcurve"/>
      <point x="171" y="685" type="line"/>
      <point x="219" y="745"/>
      <point x="283" y="745" type="qcurve" smooth="yes"/>
      <point x="305" y="745"/>
      <point x="342" y="732"/>
      <point x="358" y="724" type="qcurve"/>
      <point x="363" y="721" type="line"/>
      <point x="404" y="701"/>
      <point x="429" y="701" type="qcurve" smooth="yes"/>
      <point x="446" y="701"/>
      <point x="472" y="714"/>
      <point x="488" y="727" type="qcurve"/>
      <point x="528" y="663" type="line"/>
      <point x="484" y="603"/>
    </contour>
  </outline>
</glyph>
<glyph name="Ecircumflexacute" format="2">
  <advance width="576"/>
  <unicode hex="1EBE"/>
  <outline>
    <contour>
      <point x="478" y="0" type="line"/>
      <point x="25" y="0" type="line"/>
      <point x="165" y="698" type="line"/>
      <point x="607" y="698" type="line"/>
      <point x="583" y="581" type="line"/>
      <point x="275" y="581" type="line"/>
      <point x="241" y="411" type="line"/>
      <point x="514" y="411" type="line"/>
      <point x="491" y="294" type="line"/>
      <point x="217" y="294" type="line"/>
      <point x="182" y="117" type="line"/>
      <point x="502" y="117" type="line"/>
    </contour>
    <contour>
      <point x="587" y="890" type="line"/>
      <point x="516" y="927" type="line"/>
      <point x="620" y="1113" type="line"/>
      <point x="720" y="1062" type="line"/>
    </contour>
    <contour>
      <point x="513" y="735" type="line"/>
      <point x="412" y="841" type="line"/>
      <point x="278" y="735" type="line"/>
      <point x="217" y="792" type="line"/>
      <point x="380" y="936" type="line"/>
      <point x="471" y="936" type="line"/>
      <point x="579" y="792" type="line"/>
    </contour>
  </outline>
</glyph>
<glyph name="ecircumflextilde" format="2">
  <advance width="514"/>
  <unicode hex="1EC5"/>
  <outline>
    <contour>
      <point x="178" y="294" type="line"/>
      <point x="285" y="298"/>
      <point x="375" y="338"/>
      <point x="375" y="380" type="qcurve" smooth="yes"/>
      <point x="375" y="436"/>
      <point x="309" y="436" type="qcurve" smooth="yes"/>
      <point x="205" y="436"/>
      <point x="181" y="309" type="qcurve" smooth="yes"/>
    </contour>
    <contour>
      <point x="251" y="-12" type="qcurve" smooth="yes"/>
      <point x="137" y="-12"/>
      <point x="35" y="112"/>
      <point x="35" y="212" type="qcurve" smooth="yes"/>
      <point x="35" y="296"/>
      <point x="112" y="456"/>
      <point x="197" y="507" type="qcurve"/>
      <point x="249" y="535"/>
      <point x="317" y="535" type="qcurve" smooth="yes"/>
      <point x="367" y="535"/>
      <point x="450" y="505"/>
      <point x="500" y="441"/>
      <point x="500" y="391" type="qcurve" smooth="yes"/>
      <point x="500" y="219"/>
      <point x="164" y="210" type="qcurve"/>
      <point x="162" y="196"/>
      <point x="162" y="184" type="qcurve" smooth="yes"/>
      <point x="162" y="93"/>
      <point x="260" y="93" type="qcurve" smooth="yes"/>
      <point x="336" y="93"/>
      <point x="394" y="167" type="qcurve"/>
      <point x="473" y="104" type="line"/>
      <point x="388" y="-12"/>
    </contour>
    <contour>
      <point x="433" y="792" type="qcurve" smooth="yes"/>
      <point x="400" y="792"/>
      <point x="377" y="808" type="qcurve"/>
      <point x="349" y="823"/>
      <point x="317" y="836"/>
      <point x="301" y="836" type="qcurve" smooth="yes"/>
      <point x="269" y="836"/>
      <point x="243" y="810" type="qcurve"/>
      <point x="210" y="869" type="line"/>
      <point x="263" y="930"/>
      <point x="325" y="930" type="qcurve" smooth="yes"/>
      <point x="347" y="930"/>
      <point x="375" y="917"/>
      <point x="387" y="910" type="qcurve"/>
      <point x="405" y="901"/>
      <point x="440" y="886"/>
      <point x="458" y="886" type="qcurve" smooth="yes"/>
      <point x="487" y="886"/>
      <point x="516" y="912" type="qcurve"/>
      <point x="549" y="853" type="line"/>
      <point x="497" y="792"/>
    </contour>
    <contour>
      <point x="452" y="573" type="line"/>
      <point x="351" y="678" type="line"/>
      <point x="217" y="573" type="line"/>
      <point x="157" y="630" type="line"/>
      <point x="318" y="764" type="line"/>
      <point x="409" y="764" type="line"/>
      <point x="518" y="630" type="line"/>
    </contour>
  </outline>
</glyph>
<glyph name="Ecircumflexdotbelow" format="2">
  <advance width="576"/>
  <unicode hex="1EC6"/>
  <outline>
    <contour>
      <point x="225" y="-196" type="qcurve" smooth="yes"/>
      <point x="161" y="-196"/>
      <point x="161" y="-147" type="qcurve" smooth="yes"/>
      <point x="161" y="-136"/>
      <point x="166" y="-112" type="qcurve"/>
      <point x="172" y="-56"/>
      <point x="245" y="-56" type="qcurve" smooth="yes"/>
      <point x="309" y="-56"/>
      <point x="309" y="-105" type="qcurve" smooth="yes"/>
      <point x="309" y="-116"/>
      <point x="304" y="-129"/>
      <point x="303" y="-140" type="qcurve"/>
      <point x="295" y="-168"/>
      <point x="259" y="-196"/>
    </contour>
    <contour>
      <point x="512" y="743" type="line"/>
      <point x="415" y="858" type="line"/>
      <point x="280" y="743" type="line"/>
      <point x="215" y="795" type="line"/>
      <point x="368" y="951" type="line"/>
      <point x="485" y="951" type="line"/>
      <point x="581" y="795" type="line"/>
    </contour>
    <contour>
      <point x="478" y="0" type="line"/>
      <point x="25" y="0" type="line"/>
      <point x="165" y="698" type="line"/>
      <point x="607" y="698" type="line"/>
      <point x="583" y="581" type="line"/>
      <point x="275" y="581" type="line"/>
      <point x="241" y="411" type="line"/>
      <point x="514" y="411" type="line"/>
      <point x="491" y="294" type="line"/>
      <point x="217" y="294" type="line"/>
      <point x="182" y="117" type="line"/>
      <point x="502" y="117" type="line"/>
    </contour>
  </outline>
</glyph>
<glyph name="Udotbelow" format="2">
  <advance width="674"/>
  <unicode hex="1EE4"/>
  <outline>
    <contour>
      <point x="248" y="-196" type="qcurve" smooth="yes"/>
      <point x="184" y="-196"/>
      <point x="184" y="-147" type="qcurve" smooth="yes"/>
      <point x="184" y="-136"/>
      <point x="189" y="-112" type="qcurve"/>
      <point x="195" y="-56"/>
      <point x="268" y="-56" type="qcurve" smooth="yes"/>
      <point x="332" y="-56"/>
      <point x="332" y="-105" type="qcurve" smooth="yes"/>
      <point x="332" y="-116"/>
      <point x="327" y="-129"/>
      <point x="326" y="-140" type="qcurve"/>
      <point x="318" y="-168"/>
      <point x="282" y="-196"/>
    </contour>
    <contour>
      <point x="303" y="-12" type="qcurve" smooth="yes"/>
      <point x="74" y="-12"/>
      <point x="74" y="209" type="qcurve" smooth="yes"/>
      <point x="74" y="251"/>
      <point x="83" y="301" type="qcurve"/>
      <point x="163" y="698" type="line"/>
      <point x="294" y="698" type="line"/>
      <point x="211" y="280" type="line" smooth="yes"/>
      <point x="203" y="243"/>
      <point x="203" y="216" type="qcurve" smooth="yes"/>
      <point x="204" y="109"/>
      <point x="310" y="109" type="qcurve" smooth="yes"/>
      <point x="442" y="109"/>
      <point x="467" y="273" type="qcurve"/>
      <point x="484" y="366"/>
      <point x="507" y="478"/>
      <point x="532" y="598"/>
      <point x="552" y="698" type="qcurve"/>
      <point x="684" y="698" type="line"/>
      <point x="599" y="276" type="line" smooth="yes"/>
      <point x="570" y="121"/>
      <point x="427" y="-12"/>
    </contour>
  </outline>
</glyph>
<glyph name="Uhorntilde" format="2">
  <advance width="674"/>
  <unicode hex="1EEE"/>
  <outline>
    <contour>
      <point x="303" y="-12" type="qcurve" smooth="yes"/>
      <point x="182" y="-12"/>
      <point x="74" y="107"/>
      <point x="74" y="209" type="qcurve" smooth="yes"/>
      <point x="74" y="251"/>
      <point x="84" y="301" type="qcurve" smooth="yes"/>
      <point x="163" y="698" type="line"/>
      <point x="294" y="698" type="line"/>
      <point x="211" y="280" type="line" smooth="yes"/>
      <point x="203" y="243"/>
      <point x="203" y="216" type="qcurve" smooth="yes"/>
      <point x="204" y="109"/>
      <point x="310" y="109" type="qcurve" smooth="yes"/>
      <point x="442" y="109"/>
      <point x="467" y="273" type="qcurve"/>
      <point x="553" y="698" type="line"/>
      <point x="638" y="698" type="line"/>
      <point x="660" y="805" type="line"/>
      <point x="774" y="805" type="line"/>
      <point x="768" y="775" type="line" smooth="yes"/>
      <point x="758" y="721"/>
      <point x="739" y="653"/>
      <point x="701" y="619"/>
      <point x="668" y="619" type="qcurve"/>
      <point x="599" y="276" type="line"/>
      <point x="573" y="124"/>
      <point x="430" y="-12"/>
    </contour>
    <contour>
      <point x="500" y="766" type="qcurve" smooth="yes"/>
      <point x="480" y="766"/>
      <point x="444" y="781"/>
      <point x="414" y="798"/>
      <point x="388" y="810"/>
      <point x="375" y="810" type="qcurve" smooth="yes"/>
      <point x="350" y="810"/>
      <point x="325" y="786" type="qcurve"/>
      <point x="285" y="847" type="line"/>
      <point x="327" y="907"/>
      <point x="386" y="907" type="qcurve" smooth="yes"/>
      <point x="418" y="907"/>
      <point x="467" y="877" type="qcurve"/>
      <point x="488" y="863"/>
      <point x="511" y="863" type="qcurve" smooth="yes"/>
      <point x="535" y="863"/>
      <point x="561" y="887" type="qcurve"/>
      <point x="601" y="826" type="line"/>
      <point x="559" y="766"/>
    </contour>
  </outline>
</glyph>
<glyph name="ydotbelow" format="2">
  <advance width="504"/>
  <unicode hex="1EF5"/>
  <outline>
    <contour>
      <point x="301" y="-196" type="qcurve" smooth="yes"/>
      <point x="237" y="-196"/>
      <point x="237" y="-147" type="qcurve" smooth="yes"/>
      <point x="237" y="-136"/>
      <point x="242" y="-112" type="qcurve"/>
      <point x="248" y="-56"/>
      <point x="321" y="-56" type="qcurve" smooth="yes"/>
      <point x="385" y="-56"/>
      <point x="385" y="-105" type="qcurve" smooth="yes"/>
      <point x="385" y="-116"/>
      <point x="380" y="-129"/>
      <point x="379" y="-140" type="qcurve"/>
      <point x="371" y="-168"/>
      <point x="335" y="-196"/>
    </contour>
    <contour>
      <point x="51" y="-200" type="qcurve" smooth="yes"/>
      <point x="-27" y="-200" type="line"/>
      <point x="-6" y="-97" type="line"/>
      <point x="90" y="-97" type="line"/>
      <point x="125" y="-27" type="line"/>
      <point x="49" y="523" type="line"/>
      <point x="176" y="523" type="line"/>
      <point x="217" y="120" type="line"/>
      <point x="222" y="120" type="line"/>
      <point x="302" y="294" type="line" smooth="yes"/>
      <point x="321" y="337"/>
      <point x="365" y="424" type="qcurve" smooth="yes"/>
      <point x="414" y="523" type="line"/>
      <point x="550" y="523" type="line"/>
      <point x="223" y="-91" type="line"/>
      <point x="171" y="-200"/>
    </contour>
  </outline>
</glyph>
<glyph name="bullet" format="2">
  <advance width="414"/>
  <unicode hex="2022"/>
  <outline>
    <contour>
      <point x="195" y="156" type="qcurve" smooth="yes"/>
      <point x="64" y="156"/>
      <point x="64" y="251" type="qcurve"/>
      <point x="68" y="308"/>
      <point x="100" y="393"/>
      <point x="172" y="441"/>
      <point x="235" y="441" type="qcurve" smooth="yes"/>
      <point x="366" y="441"/>
      <point x="366" y="346" type="qcurve" smooth="yes"/>
      <point x="366" y="322"/>
      <point x="356" y="281" type="qcurve"/>
      <point x="335" y="156"/>
    </contour>
  </outline>
</glyph>
<glyph name="dong" format="2">
  <advance width="568"/>
  <unicode hex="20AB"/>
  <outline>
    <contour>
      <point x="268" y="245" type="qcurve"/>
      <point x="310" y="245"/>
      <point x="356" y="288"/>
      <point x="361" y="315" type="qcurve"/>
      <point x="373" y="368"/>
      <point x="377" y="396" type="qcurve"/>
      <point x="377" y="424"/>
      <point x="328" y="452"/>
      <point x="295" y="452" type="qcurve" smooth="yes"/>
      <point x="218" y="452"/>
      <point x="202" y="368" type="qcurve" smooth="yes"/>
      <point x="194" y="327"/>
      <point x="194" y="311" type="qcurve" smooth="yes"/>
      <point x="194" y="247"/>
    </contour>
    <contour>
      <point x="447" y="0" type="line"/>
      <point x="18" y="0" type="line"/>
      <point x="37" y="96" type="line"/>
      <point x="467" y="96" type="line"/>
    </contour>
    <contour>
      <point x="202" y="152" type="qcurve" smooth="yes"/>
      <point x="145" y="152"/>
      <point x="68" y="223"/>
      <point x="68" y="305" type="qcurve" smooth="yes"/>
      <point x="68" y="378"/>
      <point x="120" y="486"/>
      <point x="206" y="545"/>
      <point x="256" y="545" type="qcurve" smooth="yes"/>
      <point x="364" y="545"/>
      <point x="385" y="464" type="qcurve"/>
      <point x="391" y="464" type="line"/>
      <point x="418" y="599" type="line"/>
      <point x="291" y="599" type="line"/>
      <point x="308" y="682" type="line"/>
      <point x="435" y="682" type="line"/>
      <point x="446" y="740" type="line"/>
      <point x="572" y="740" type="line"/>
      <point x="561" y="682" type="line"/>
      <point x="617" y="682" type="line"/>
      <point x="600" y="599" type="line"/>
      <point x="544" y="599" type="line"/>
      <point x="455" y="160" type="line"/>
      <point x="330" y="160" type="line"/>
      <point x="346" y="237" type="line"/>
      <point x="339" y="237" type="line"/>
      <point x="291" y="152"/>
    </contour>
  </outline>
</glyph>
<glyph name="tenge" format="2">
  <advance width="589"/>
  <unicode hex="20B8"/>
  <outline>
    <contour>
      <point x="310" y="0" type="line"/>
      <point x="176" y="0" type="line"/>
      <point x="260" y="421" type="line"/>
      <point x="69" y="421" type="line"/>
      <point x="89" y="517" type="line"/>
      <point x="601" y="517" type="line"/>
      <point x="581" y="421" type="line"/>
      <point x="394" y="421" type="line"/>
    </contour>
    <contour>
      <point x="617" y="602" type="line"/>
      <point x="106" y="602" type="line"/>
      <point x="125" y="698" type="line"/>
      <point x="637" y="698" type="line"/>
    </contour>
  </outline>
</glyph>
<glyph name="turkishlira" format="2">
  <advance width="611"/>
  <unicode hex="20BA"/>
  <outline>
    <contour>
      <point x="269" y="0" type="qcurve" smooth="yes"/>
      <point x="67" y="0" type="line"/>
      <point x="111" y="219" type="line"/>
      <point x="16" y="177" type="line"/>
      <point x="34" y="263" type="line"/>
      <point x="128" y="306" type="line"/>
      <point x="143" y="379" type="line"/>
      <point x="48" y="336" type="line"/>
      <point x="65" y="422" type="line"/>
      <point x="160" y="464" type="line"/>
      <point x="207" y="698" type="line"/>
      <point x="341" y="698" type="line"/>
      <point x="307" y="529" type="line"/>
      <point x="482" y="609" type="line"/>
      <point x="464" y="523" type="line"/>
      <point x="290" y="444" type="line"/>
      <point x="275" y="371" type="line"/>
      <point x="450" y="451" type="line"/>
      <point x="433" y="365" type="line"/>
      <point x="258" y="285" type="line"/>
      <point x="223" y="111" type="line"/>
      <point x="275" y="111" type="line" smooth="yes"/>
      <point x="352" y="111"/>
      <point x="439" y="206"/>
      <point x="459" y="305" type="qcurve"/>
      <point x="587" y="305" type="line"/>
      <point x="535" y="0"/>
    </contour>
  </outline>
</glyph>
<glyph name="numero" format="2">
  <advance width="1021"/>
  <unicode hex="2116"/>
  <outline>
    <contour>
      <point x="858" y="433" type="qcurve" smooth="yes"/>
      <point x="890" y="433"/>
      <point x="924" y="477"/>
      <point x="944" y="574"/>
      <point x="944" y="585" type="qcurve" smooth="yes"/>
      <point x="944" y="636"/>
      <point x="893" y="636" type="qcurve" smooth="yes"/>
      <point x="837" y="636"/>
      <point x="819" y="559" type="qcurve" smooth="yes"/>
      <point x="809" y="512" type="line" smooth="yes"/>
      <point x="806" y="497"/>
      <point x="806" y="485" type="qcurve" smooth="yes"/>
      <point x="806" y="433"/>
    </contour>
    <contour>
      <point x="966" y="223" type="line"/>
      <point x="660" y="223" type="line"/>
      <point x="676" y="299" type="line"/>
      <point x="982" y="299" type="line"/>
    </contour>
    <contour>
      <point x="850" y="359" type="qcurve" smooth="yes"/>
      <point x="813" y="359"/>
      <point x="750" y="389"/>
      <point x="711" y="452"/>
      <point x="711" y="504" type="qcurve" smooth="yes"/>
      <point x="711" y="554"/>
      <point x="756" y="649"/>
      <point x="841" y="710"/>
      <point x="901" y="710" type="qcurve" smooth="yes"/>
      <point x="937" y="710"/>
      <point x="1000" y="679"/>
      <point x="1039" y="615"/>
      <point x="1039" y="565" type="qcurve" smooth="yes"/>
      <point x="1039" y="521"/>
      <point x="997" y="425"/>
      <point x="913" y="359"/>
    </contour>
    <contour>
      <point x="542" y="0" type="line"/>
      <point x="389" y="0" type="line"/>
      <point x="290" y="351" type="line"/>
      <point x="253" y="496" type="line"/>
      <point x="248" y="496" type="line"/>
      <point x="149" y="0" type="line"/>
      <point x="25" y="0" type="line"/>
      <point x="165" y="698" type="line"/>
      <point x="318" y="698" type="line"/>
      <point x="419" y="346" type="line"/>
      <point x="454" y="202" type="line"/>
      <point x="460" y="202" type="line"/>
      <point x="559" y="698" type="line"/>
      <point x="682" y="698" type="line"/>
    </contour>
  </outline>
</glyph>
<glyph name="oneninth" format="2">
  <advance width="838"/>
  <unicode hex="2151"/>
  <outline>
    <contour>
      <point x="642" y="196" type="qcurve" smooth="yes"/>
      <point x="706" y="196"/>
      <point x="706" y="268" type="qcurve" smooth="yes"/>
      <point x="706" y="308"/>
      <point x="660" y="308" type="qcurve" smooth="yes"/>
      <point x="637" y="308"/>
      <point x="596" y="281"/>
      <point x="596" y="246" type="qcurve" smooth="yes"/>
      <point x="596" y="235" type="line" smooth="yes"/>
      <point x="596" y="196"/>
    </contour>
    <contour>
      <point x="614" y="0" type="qcurve"/>
      <point x="482" y="0" type="line"/>
      <point x="560" y="43"/>
      <point x="667" y="125"/>
      <point x="690" y="184" type="qcurve"/>
      <point x="686" y="186" type="line"/>
      <point x="652" y="129"/>
      <point x="593" y="129" type="qcurve" smooth="yes"/>
      <point x="543" y="129"/>
      <point x="502" y="189"/>
      <point x="502" y="227" type="qcurve" smooth="yes"/>
      <point x="502" y="287"/>
      <point x="590" y="375"/>
      <point x="666" y="375" type="qcurve" smooth="yes"/>
      <point x="737" y="375"/>
      <point x="797" y="301"/>
      <point x="797" y="248" type="qcurve" smooth="yes"/>
      <point x="797" y="170"/>
      <point x="690" y="40"/>
    </contour>
    <contour>
      <point x="141" y="0" type="line"/>
      <point x="35" y="0" type="line"/>
      <point x="683" y="698" type="line"/>
      <point x="789" y="698" type="line"/>
    </contour>
    <contour>
      <point x="241" y="329" type="line"/>
      <point x="152" y="329" type="line"/>
      <point x="209" y="614" type="line"/>
      <point x="121" y="572" type="line"/>
      <point x="138" y="658" type="line"/>
      <point x="221" y="698" type="line"/>
      <point x="315" y="698" type="line"/>
    </contour>
  </outline>
</glyph>
<glyph name="arrowup" format="2">
  <advance width="885"/>
  <unicode hex="2191"/>
  <outline>
    <contour>
      <point x="498" y="0" type="line"/>
      <point x="387" y="0" type="line"/>
      <point x="387" y="429" type="line"/>
      <point x="391" y="512" type="line"/>
      <point x="387" y="513" type="line"/>
      <point x="384" y="509" type="line"/>
      <point x="383" y="509"/>
      <point x="383" y="508" type="qcurve"/>
      <point x="376" y="501" type="line"/>
      <point x="376" y="500" type="line"/>
      <point x="373" y="497" type="line"/>
      <point x="373" y="496"/>
      <point x="372" y="496" type="qcurve"/>
      <point x="366" y="488" type="line"/>
      <point x="365" y="488"/>
      <point x="365" y="487" type="qcurve"/>
      <point x="362" y="484" type="line"/>
      <point x="362" y="483" type="line"/>
      <point x="355" y="476" type="line"/>
      <point x="355" y="475"/>
      <point x="354" y="475" type="qcurve"/>
      <point x="351" y="471" type="line"/>
      <point x="350" y="470" type="line"/>
      <point x="333" y="450"/>
      <point x="308" y="427" type="qcurve" smooth="yes"/>
      <point x="283" y="403" type="line"/>
      <point x="209" y="477" type="line"/>
      <point x="442" y="710" type="line"/>
      <point x="675" y="477" type="line"/>
      <point x="601" y="403" type="line"/>
      <point x="561" y="443" type="line"/>
      <point x="546" y="457"/>
      <point x="530" y="473"/>
      <point x="521" y="484"/>
      <point x="510" y="498"/>
      <point x="498" y="513" type="qcurve"/>
      <point x="494" y="512" type="line"/>
      <point x="498" y="429" type="line"/>
    </contour>
  </outline>
</glyph>
<glyph name="arrowuprighttip" format="2">
  <advance width="885"/>
  <unicode hex="21B1"/>
  <outline>
    <contour>
      <point x="297" y="0" type="line"/>
      <point x="186" y="0" type="line"/>
      <point x="186" y="521" type="line"/>
      <point x="431" y="521" type="line"/>
      <point x="514" y="517" type="line"/>
      <point x="515" y="520" type="line"/>
      <point x="494" y="539"/>
      <point x="452" y="574"/>
      <point x="429" y="599" type="qcurve" smooth="yes"/>
      <point x="405" y="624" type="line"/>
      <point x="479" y="698" type="line"/>
      <point x="712" y="465" type="line"/>
      <point x="479" y="232" type="line"/>
      <point x="405" y="306" type="line"/>
      <point x="420" y="321"/>
      <point x="440" y="343"/>
      <point x="450" y="352" type="qcurve"/>
      <point x="452" y="355"/>
      <point x="515" y="410" type="qcurve"/>
      <point x="514" y="414" type="line"/>
      <point x="431" y="409" type="line"/>
      <point x="297" y="409" type="line"/>
    </contour>
  </outline>
</glyph>
<glyph name="arrowleftdowntip" format="2">
  <advance width="885"/>
  <unicode hex="21B2"/>
  <outline>
    <contour>
      <point x="406" y="0" type="line"/>
      <point x="173" y="233" type="line"/>
      <point x="406" y="466" type="line"/>
      <point x="480" y="392" type="line"/>
      <point x="465" y="377"/>
      <point x="445" y="355"/>
      <point x="435" y="346" type="qcurve"/>
      <point x="433" y="343"/>
      <point x="370" y="288" type="qcurve"/>
      <point x="371" y="284" type="line"/>
      <point x="454" y="289" type="line"/>
      <point x="587" y="289" type="line"/>
      <point x="587" y="698" type="line"/>
      <point x="699" y="698" type="line"/>
      <point x="699" y="177" type="line"/>
      <point x="454" y="177" type="line"/>
      <point x="371" y="181" type="line"/>
      <point x="370" y="178" type="line"/>
      <point x="371" y="177" type="line"/>
      <point x="374" y="175" type="line"/>
      <point x="374" y="174"/>
      <point x="375" y="174" type="qcurve"/>
      <point x="378" y="171" type="line"/>
      <point x="379" y="171"/>
      <point x="379" y="170" type="qcurve"/>
      <point x="382" y="167" type="line"/>
      <point x="383" y="167" type="line"/>
      <point x="387" y="164" type="line"/>
      <point x="387" y="163" type="line"/>
      <point x="395" y="156" type="line"/>
      <point x="396" y="156" type="line"/>
      <point x="399" y="153" type="line"/>
      <point x="400" y="153" type="line"/>
      <point x="407" y="146" type="line"/>
      <point x="408" y="146"/>
      <point x="408" y="145" type="qcurve"/>
      <point x="412" y="142" type="line"/>
      <point x="433" y="124"/>
      <point x="456" y="99" type="qcurve" smooth="yes"/>
      <point x="480" y="74" type="line"/>
    </contour>
  </outline>
</glyph>
<glyph name="ff" format="2">
  <advance width="645"/>
  <unicode hex="FB00"/>
  <outline>
    <contour>
      <point x="-11" y="-200" type="qcurve" smooth="yes"/>
      <point x="-85" y="-200" type="line"/>
      <point x="-63" y="-96" type="line"/>
      <point x="32" y="-96" type="line"/>
      <point x="136" y="420" type="line"/>
      <point x="64" y="420" type="line"/>
      <point x="84" y="523" type="line"/>
      <point x="156" y="523" type="line"/>
      <point x="171" y="597" type="line" smooth="yes"/>
      <point x="185" y="669"/>
      <point x="272" y="740"/>
      <point x="350" y="740" type="qcurve" smooth="yes"/>
      <point x="427" y="740" type="line"/>
      <point x="405" y="636" type="line"/>
      <point x="307" y="636" type="line"/>
      <point x="285" y="523" type="line"/>
      <point x="457" y="523" type="line"/>
      <point x="472" y="597" type="line" smooth="yes"/>
      <point x="486" y="669"/>
      <point x="573" y="740"/>
      <point x="651" y="740" type="qcurve" smooth="yes"/>
      <point x="728" y="740" type="line"/>
      <point x="706" y="636" type="line"/>
      <point x="608" y="636" type="line"/>
      <point x="586" y="523" type="line"/>
      <point x="688" y="523" type="line"/>
      <point x="667" y="420" type="line"/>
      <point x="565" y="420" type="line"/>
      <point x="470" y="-57" type="line"/>
      <point x="454" y="-129"/>
      <point x="367" y="-200"/>
      <point x="290" y="-200" type="qcurve" smooth="yes"/>
      <point x="216" y="-200" type="line"/>
      <point x="238" y="-96" type="line"/>
      <point x="333" y="-96" type="line"/>
      <point x="437" y="420" type="line"/>
      <point x="264" y="420" type="line"/>
      <point x="169" y="-57" type="line"/>
      <point x="153" y="-129"/>
      <point x="66" y="-200"/>
    </contour>
  </outline>
</glyph>
<glyph name="eight.subs" format="2">
  <advance width="357"/>
  <outline>
    <contour>
      <point x="199" y="531" type="qcurve" smooth="yes"/>
      <point x="227" y="531"/>
      <point x="262" y="561"/>
      <point x="262" y="593" type="qcurve"/>
      <point x="261" y="625"/>
      <point x="216" y="625" type="qcurve" smooth="yes"/>
      <point x="154" y="625"/>
      <point x="154" y="563" type="qcurve" smooth="yes"/>
      <point x="154" y="531"/>
    </contour>
    <contour>
      <point x="233" y="689" type="qcurve" smooth="yes"/>
      <point x="294" y="689"/>
      <point x="294" y="748" type="qcurve"/>
      <point x="292" y="779"/>
      <point x="250" y="779" type="qcurve" smooth="yes"/>
      <point x="196" y="779"/>
      <point x="191" y="732" type="qcurve"/>
      <point x="191" y="711"/>
      <point x="208" y="689"/>
    </contour>
    <contour>
      <point x="189" y="464" type="qcurve" smooth="yes"/>
      <point x="122" y="464"/>
      <point x="62" y="515"/>
      <point x="62" y="555" type="qcurve" smooth="yes"/>
      <point x="62" y="638"/>
      <point x="154" y="660" type="qcurve"/>
      <point x="155" y="663" type="line"/>
      <point x="108" y="683"/>
      <point x="108" y="737" type="qcurve" smooth="yes"/>
      <point x="108" y="784"/>
      <point x="189" y="845"/>
      <point x="261" y="845" type="qcurve" smooth="yes"/>
      <point x="323" y="845"/>
      <point x="380" y="797"/>
      <point x="380" y="758" type="qcurve" smooth="yes"/>
      <point x="380" y="688"/>
      <point x="300" y="665" type="qcurve"/>
      <point x="299" y="660" type="line"/>
      <point x="356" y="641"/>
      <point x="356" y="587" type="qcurve" smooth="yes"/>
      <point x="356" y="530"/>
      <point x="255" y="464"/>
    </contour>
  </outline>
</glyph>
<glyph name="five.subs" format="2">
  <advance width="347"/>
  <outline>
    <contour>
      <point x="191" y="464" type="qcurve" smooth="yes"/>
      <point x="88" y="464"/>
      <point x="55" y="539" type="qcurve"/>
      <point x="125" y="581" type="line"/>
      <point x="140" y="535"/>
      <point x="193" y="535" type="qcurve" smooth="yes"/>
      <point x="260" y="535"/>
      <point x="260" y="604" type="qcurve"/>
      <point x="258" y="643"/>
      <point x="214" y="643" type="qcurve" smooth="yes"/>
      <point x="178" y="643"/>
      <point x="154" y="620" type="qcurve"/>
      <point x="82" y="629" type="line"/>
      <point x="142" y="839" type="line"/>
      <point x="383" y="839" type="line"/>
      <point x="368" y="763" type="line"/>
      <point x="189" y="763" type="line"/>
      <point x="158" y="652" type="line"/>
      <point x="163" y="652" type="line"/>
      <point x="192" y="714"/>
      <point x="263" y="714" type="qcurve" smooth="yes"/>
      <point x="302" y="714"/>
      <point x="358" y="662"/>
      <point x="358" y="614" type="qcurve" smooth="yes"/>
      <point x="358" y="579"/>
      <point x="323" y="510"/>
      <point x="249" y="464"/>
    </contour>
  </outline>
</glyph>
<glyph name="seven.subs" format="2">
  <advance width="329"/>
  <outline>
    <contour>
      <point x="190" y="470" type="line"/>
      <point x="91" y="470" type="line"/>
      <point x="283" y="767" type="line"/>
      <point x="89" y="767" type="line"/>
      <point x="104" y="839" type="line"/>
      <point x="388" y="839" type="line"/>
      <point x="373" y="763" type="line"/>
    </contour>
  </outline>
</glyph>
<glyph name="three.subs" format="2">
  <advance width="333"/>
  <outline>
    <contour>
      <point x="172" y="464" type="qcurve" smooth="yes"/>
      <point x="64" y="464"/>
      <point x="36" y="536" type="qcurve"/>
      <point x="100" y="582" type="line"/>
      <point x="119" y="535"/>
      <point x="173" y="535" type="qcurve" smooth="yes"/>
      <point x="195" y="535"/>
      <point x="233" y="556"/>
      <point x="238" y="590" type="qcurve"/>
      <point x="238" y="623"/>
      <point x="186" y="623" type="qcurve" smooth="yes"/>
      <point x="145" y="623" type="line"/>
      <point x="159" y="695" type="line"/>
      <point x="197" y="695" type="line" smooth="yes"/>
      <point x="256" y="695"/>
      <point x="262" y="729" type="qcurve"/>
      <point x="264" y="743" type="line"/>
      <point x="262" y="774"/>
      <point x="219" y="774" type="qcurve" smooth="yes"/>
      <point x="174" y="774"/>
      <point x="139" y="730" type="qcurve"/>
      <point x="90" y="785" type="line"/>
      <point x="140" y="845"/>
      <point x="231" y="845" type="qcurve" smooth="yes"/>
      <point x="286" y="845"/>
      <point x="358" y="800"/>
      <point x="358" y="755" type="qcurve" smooth="yes"/>
      <point x="358" y="681"/>
      <point x="268" y="662" type="qcurve"/>
      <point x="268" y="660" type="line"/>
      <point x="332" y="648"/>
      <point x="332" y="586" type="qcurve" smooth="yes"/>
      <point x="332" y="536"/>
      <point x="255" y="464"/>
    </contour>
  </outline>
</glyph>
<glyph name="two.subs" format="2">
  <advance width="340"/>
  <outline>
    <contour>
      <point x="316" y="470" type="line"/>
      <point x="39" y="470" type="line"/>
      <point x="55" y="550" type="line"/>
      <point x="204" y="649" type="line" smooth="yes"/>
      <point x="240" y="673"/>
      <point x="250" y="687" type="qcurve" smooth="yes"/>
      <point x="265" y="709"/>
      <point x="268" y="732" type="qcurve"/>
      <point x="268" y="762"/>
      <point x="226" y="767" type="qcurve"/>
      <point x="211" y="767"/>
      <point x="200" y="761" type="qcurve"/>
      <point x="172" y="753"/>
      <point x="160" y="720" type="qcurve"/>
      <point x="83" y="749" type="line"/>
      <point x="126" y="845"/>
      <point x="232" y="845" type="qcurve" smooth="yes"/>
      <point x="286" y="845"/>
      <point x="363" y="793"/>
      <point x="363" y="741" type="qcurve" smooth="yes"/>
      <point x="363" y="689"/>
      <point x="283" y="611"/>
      <point x="220" y="580" type="qcurve"/>
      <point x="161" y="543" type="line"/>
      <point x="331" y="543" type="line"/>
    </contour>
  </outline>
</glyph>
